<?xml version="1.0" standalone="no"?>
<!DOCTYPE svg PUBLIC "-//W3C//DTD SVG 1.1//EN" "http://www.w3.org/Graphics/SVG/1.1/DTD/svg11.dtd" >
<svg>
<metadata>
Created by FontForge 20110222 at Thu Mar 28 10:52:03 2013
 By Orthosie Webmaster
Copyright 2009 eldes.com, created using www.fontcapture.com
</metadata>
<defs>
<font id="EldesCordel1Medium" horiz-adv-x="30" >
  <font-face 
    font-family="EldesCordel1Medium"
    font-weight="500"
    font-stretch="normal"
    units-per-em="2048"
    panose-1="2 0 6 3 0 0 0 0 0 0"
    ascent="1317"
    descent="-731"
    x-height="1343"
    cap-height="1432"
    bbox="28.8667 -555.009 1869.79 1567"
    underline-thickness="50"
    underline-position="-100"
    unicode-range="U+0020-20AC"
  />
<missing-glyph horiz-adv-x="748" 
d="M68 0v1317h544v-1317h-544zM136 68h408v1181h-408v-1181z" />
    <glyph glyph-name=".notdef" horiz-adv-x="748" 
d="M68 0v1317h544v-1317h-544zM136 68h408v1181h-408v-1181z" />
    <glyph glyph-name=".null" horiz-adv-x="0" 
 />
    <glyph glyph-name="nonmarkingreturn" horiz-adv-x="682" 
 />
    <glyph glyph-name="space" unicode=" " horiz-adv-x="500" 
 />
    <glyph glyph-name="exclam" unicode="!" horiz-adv-x="638" 
d="M95 283q44 12 164 11.5t120 -13.5q0 -15 -15 -15q-17 0 -31 -65.5t-14 -146.5q0 -41 -4 -73t-11 -36q-15 -9 -119 1q-3 0 -8 1q-20 2 -29.5 2.5t-23.5 4t-19 4.5t-13.5 9.5t-10.5 11.5t-7 18.5t-5.5 24t-2.5 33t-2.5 40.5t-1.5 52q-1 9 -1 13q-4 52 -0.5 78t9 32.5
t25.5 12.5zM156 1128l48 291l91 -9q74 -7 114 -11.5t65 -9.5t32.5 -10.5t7.5 -13.5q0 -19 -37 -353t-41 -461l-5 -128h51q22 0 38.5 -5t19.5 -13q2 -6 -7.5 -9.5t-35.5 -5.5t-68.5 -3t-109.5 -1h-228l8 225q9 225 57 517z" />
    <glyph glyph-name="quotedbl" unicode="&#x22;" horiz-adv-x="130" 
 />
    <glyph glyph-name="numbersign" unicode="#" horiz-adv-x="130" 
 />
    <glyph glyph-name="dollar" unicode="$" 
 />
    <glyph glyph-name="percent" unicode="%" 
 />
    <glyph glyph-name="ampersand" unicode="&#x26;" 
 />
    <glyph glyph-name="quotesingle" unicode="'" horiz-adv-x="130" 
 />
    <glyph glyph-name="parenleft" unicode="(" 
 />
    <glyph glyph-name="parenright" unicode=")" 
 />
    <glyph glyph-name="asterisk" unicode="*" 
 />
    <glyph glyph-name="plus" unicode="+" horiz-adv-x="130" 
 />
    <glyph glyph-name="comma" unicode="," horiz-adv-x="798" 
d="M292 -305q0 17 2.5 17.5t12.5 -14.5q22 -34 12 -40q-4 -3 -12 3q-6 3 -10.5 13.5t-4.5 20.5zM636 -234q4 11 9 19.5t9 12.5t6 2q7 -8 -9 -49q-4 -11 -9 -20t-9 -13t-6 -2q-7 8 9 50zM442 407q25 6 38 8.5t30.5 5.5t25 4t18.5 1t15 -0.5t10.5 -3.5t9 -5.5t6.5 -8.5
t6 -11.5t6 -14.5q19 -48 55 -127l37 -78l-99 -251q-99 -250 -111 -268q-6 -10 -20.5 -10.5t-45.5 8.5l-55 17l9 125q9 126 -10 162q-8 15 -11.5 36.5t-0.5 37.5t1 29.5t-7 17.5q-14 9 -130 16l-117 6l-17 -64q-17 -64 -22 -124l-3 -17q0 7 1 47q3 67 18.5 191t26.5 172
q7 31 60 54.5t117 24.5q61 1 159 20z" />
    <glyph glyph-name="hyphen" unicode="-" horiz-adv-x="700" 
d="M579 87q9 15 15.5 15t6.5 -15q0 -6 -4.5 -10.5t-11 -4.5t-8.5 4.5t2 10.5zM60 603q8 8 219.5 -1.5t220.5 -18.5q10 -10 21 -119l10 -109l-118 7q-118 8 -217 8l-98 1l-23 112q-22 112 -15 120z" />
    <glyph glyph-name="period" unicode="." horiz-adv-x="492" 
d="M109 384q48 14 166 16l118 1l-9 -114q-10 -115 -10 -178v-62l-101 -9q-101 -9 -157 -20l-56 -10v181v181z" />
    <glyph glyph-name="slash" unicode="/" horiz-adv-x="130" 
 />
    <glyph glyph-name="zero" unicode="0" horiz-adv-x="1035" 
d="M385 995q15 39 19 0v-21q0 -28 -5 -29q-3 -1 -8 8q-14 21 -6 42zM569 876q0 154 15 145q14 -9 14 -131.5t-15 -144.5q-7 -11 -10 16q-4 31 -4 115zM50 1331q24 15 32 6.5t8 -51.5q0 -50 -22 -208.5t-30 -166.5q-5 -5 -6 6q-3 19 -1 223q1 179 19 191zM415.5 1357
q190.5 8 385.5 1l194 -8l-7 -306q-9 -353 -7.5 -652.5t12.5 -386.5l12 -105l-63 -27q-44 -19 -110 -21t-322 8q-157 5 -274.5 14t-136.5 17l-43 18l11 175q8 137 24.5 279t64.5 487q39 276 44 377t15 111.5t200.5 18.5zM690 1185q-66 34 -114 14q-33 -13 -118 -19t-89 4
q-7 17 -26 -2q-11 -11 -14.5 -84.5t-1.5 -267.5q4 -423 17 -605.5t39 -182.5q9 0 15 5t6 12q0 15 28 -9q3 -2 7 -6q14 -13 36.5 -22.5t39.5 -9.5q55 0 153 33.5t110 56.5q14 26 14 62.5t-13 51.5q-50 53 -48 584l2 362z" />
    <glyph glyph-name="one" unicode="1" horiz-adv-x="774" 
d="M258 -82q8 43 19 40q13 -4 23 -68q5 -32 2 -44.5t-14 -12.5q-46 0 -30 85zM47 -70q11 43 17 33q6 -9 6 -60q0 -47 -6 -47q-3 -1 -10 11q-7 11 -9 29.5t2 33.5zM325 -69.5q0 21.5 4.5 36.5t10.5 15t10.5 -18t4.5 -42q-1 -55 -15 -52q-6 4 -10.5 21.5t-4.5 39zM33 141
q11 61 17 46q6 -12 5 -75q0 -60 -7 -61q-3 0 -9 11q-7 12 -8.5 35t2.5 44zM82 900q13 14 16 1q3 -10 3 -59q-1 -64 -15 -59q-12 7 -14 56.5t10 60.5zM95 1016l12 35l6 -34q6 -42 -9 -48q-5 -3 -12 3q-9 9 3 44zM332 1071q10 16 28 9.5t17 -196.5q-2 -395 -16 -414
q-2 -4 -5 0q-13 13 -24.5 298t0.5 303zM297 1375l91 103h86q86 0 178 -10l92 -10l-7 -166q-45 -1061 -45 -1275v-169h-141h-141l13 332q13 333 16 617t14 311q9 23 0.5 64t-26.5 63q-15 18 -108.5 18t-103.5 10q-4 4 20 36.5t62 75.5z" />
    <glyph glyph-name="two" unicode="2" horiz-adv-x="1393" 
d="M530 1310l286 16q15 1 70.5 -20t115.5 -51q148 -72 245.5 -106.5t111 -46.5t-4 -136t-25.5 -210l-8 -86l-153 -91q-152 -91 -349.5 -187.5t-201.5 -107.5q-6 -13 -61.5 -44.5t-88.5 -38.5q-42 -10 -39 -23q3 -15 69 -24q70 -10 152.5 -32.5t376.5 -29.5l293 -8l9 -45
q9 -45 9 -116q0 -42 -7.5 -63t-29.5 -42q-25 -23 -37.5 -26t-37.5 8q-45 21 -105 17t-92 -29q-36 -29 -64.5 -28.5t-65.5 30.5q-26 20 -62 24q-48 5 -309 -1l-332 -7l-46 48q-45 48 -71 57q-15 6 -21.5 26t-7.5 68q-3 96 -6.5 133t-11.5 61q-5 18 17.5 48.5t94.5 101.5
q121 119 185 165q147 103 265.5 196t165.5 141q50 52 57.5 67.5t-8.5 34.5q-24 26 -22.5 36t28.5 10q12 0 21 6t9 15q0 20 -80.5 30t-308.5 18q-158 6 -207.5 2.5t-103.5 -25.5q-79 -31 -85.5 -31t-6.5 52q0 33 7.5 46t33.5 22q17 7 50.5 33t65.5 56l74 74z" />
    <glyph glyph-name="three" unicode="3" horiz-adv-x="1359" 
d="M75 192q21 13 32 13.5t19 -12.5q4 -5 -3.5 -11.5t-20.5 -10.5q-41 -10 -42 3q-1 8 15 18zM45 311q0 15 15 15t15 -15t-15 -15t-15 15zM728 376q35 9 42 6t7 -27q0 -17 -5.5 -22.5t-17.5 -0.5q-24 9 -38 9q-17 0 -13 14q4 15 25 21zM142 865q9 14 15.5 14t6.5 -14
q0 -7 -4.5 -11t-11 -4t-8.5 4t2 11zM454 1113q9 24 33 15t38 -9q21 0 12 -14q-9 -16 -38 -23q-34 -9 -44.5 -2t-0.5 33zM510 1446q75 12 345.5 13t352.5 -10q33 -5 63.5 -15.5t40.5 -21.5q17 -17 16.5 -42t-20.5 -127q-2 -9 -5 -26q-6 -30 -8.5 -43t-9.5 -32t-9.5 -24.5
t-16 -16.5t-20.5 -13t-30.5 -8t-39.5 -7.5t-54 -6.5q-21 -3 -33 -5q-108 -14 -336.5 -105t-279.5 -140q-66 -65 -44 -95t121 -8q110 25 372 31.5t315 -13.5q18 -6 23 -22q8 -28 6 -242q-1 -17 -1 -45l-4 -298l-59 -98l-60 -99l-138 -8q-56 -4 -156 -18.5t-183 -31.5
q-152 -31 -307 -41t-218 8q-32 9 -51.5 55.5t-15 94t33.5 58.5q35 13 288.5 28.5t300.5 7.5q56 -10 87.5 9t57.5 77q25 57 36 197t-9 156q-16 14 -69 23q-40 7 -353.5 -12.5t-359.5 -32.5q-24 -6 -29 1.5t-5 49t21 72.5t117 129q98 101 145.5 135t179.5 97q187 90 262 114
q113 37 112 56q-2 25 -217 34q-167 8 -244.5 17t-199.5 35q-69 15 -119 0.5t-62 -14.5q-8 0 -9.5 13t2.5 37t14 56q17 57 66.5 74.5t164.5 7.5q114 -10 132.5 6t99.5 29z" />
    <glyph glyph-name="four" unicode="4" horiz-adv-x="1637" 
d="M516 829q30 32 36 26q3 -3 5 -13q4 -21 -12.5 -36t-43.5 -16q-21 0 15 39zM1203 -66q1 26 3 29q2 1 5 -6l6 -12q7 -16 10 -25.5t3 -15.5t-3 -8.5t-10 -2.5q-6 0 -10 12t-4 29zM31 172q-4 71 8 71q5 -4 8.5 -39t3.5 -81q0 -83 18.5 -149t41.5 -69q28 -3 37 -6t17 -11
q7 -7 -9 -9q-4 -1 -11 -1q-38 0 -68.5 42.5t-34.5 102.5q-6 71 -11 149zM361 405q11 11 80 9.5t87 -12.5q23 -14 -5 -25q-13 -5 -40 -12q-36 -8 -93 13q-34 13 -31 24q0 2 2 3zM1403 437q-1 5 -2 8.5t2.5 6.5t8.5 4.5t15.5 2.5t24 1.5t33.5 0.5q62 0 76.5 -5t14.5 -27
q0 -20 -9.5 -23.5t-49.5 2.5q-40 8 -53 2.5t-28 -34.5l-23 -42v39q-1 40 -10 64zM1298 437q-9 24 15 24q14 0 17 -10t-2 -38q-12 -60 -18 -55q-3 2 -3 24q0 31 -9 55zM1154.5 468.5q7.5 7.5 51.5 7.5q26 0 33.5 -5t1.5 -19q-9 -24 -9 -38q0 -6 -4.5 -7.5t-10.5 2.5t-17 2
t-19 -9q-12 -9 -17.5 -5t-9.5 26q-7 38 0.5 45.5zM1217 980q0 97 21 -8q4 -20 2.5 -34t-8.5 -14q-6 0 -10.5 16.5t-4.5 39.5zM51 1043q0 7 4.5 11.5t10.5 4.5q15 0 15 -7t-15 -16q-6 -3 -10.5 -1.5t-4.5 8.5zM1586 1134q-8 93 1 93q1 0 4 -4q12 -18 15 -142q2 -72 -5 -65
q-5 5 -15 118zM575 1362q0 8 24.5 10t65.5 -1.5t86 -11.5q75 -15 242 -17l168 -2l-10 -99q-10 -100 -25.5 -237.5t-7.5 -159.5q5 -14 51 -19.5t181 -7.5q223 -5 230.5 -12.5t-0.5 -130.5l-8 -123h-208q-45 0 -77.5 -1t-61.5 -2t-47 -3.5t-34 -6.5t-22.5 -9t-12.5 -11.5
t-4.5 -15t2.5 -19.5q4 -15 2.5 -31.5t-7.5 -23.5q-10 -12 -21.5 -180t-12.5 -297v-52h-138q-45 1 -70.5 2t-41 3.5t-19.5 6.5t-2 12q6 22 13 270l7 248l-297 12q-297 11 -366 16q-48 3 -60 -3q-17 -11 -30 -73q-3 -14 -13 -67q-7 -37 -9 8q-1 38 3 140l6 216l55 82
q54 82 168 217q301 357 301 373zM814 983q0 35 -0.5 58t-2.5 45t-4 34.5t-8 21.5t-12 10.5t-17 -2.5t-22 -12t-29 -24t-36 -34l-45 -45q-281 -287 -256 -329q4 -7 16 -8q17 -2 38 2.5t139 36.5q127 35 191 45q78 13 74 33q-2 6 -11 12q-7 4 -11 48.5t-4 107.5z" />
    <glyph glyph-name="five" unicode="5" horiz-adv-x="1598" 
d="M940.5 285q-16.5 11 9.5 11t24.5 -33.5t-9.5 -11t-24.5 33.5zM1137.5 898.5q-19.5 7.5 9.5 9.5q21 1 21 -6l-2 -2q-9 -9 -28.5 -1.5zM1063.5 898.5q-19.5 7.5 8.5 9.5q22 1 21 -6q0 -1 -1 -2q-9 -9 -28.5 -1.5zM648 980q1 54 6 53q3 -1 8 -12q9 -20 12 -46.5t0 -46
t-12 -19.5q-6 0 -10 21t-4 50zM271 1452q30 4 107.5 2t313.5 -12q172 -8 479 -17q76 -3 123.5 -5t91 -5t67.5 -8t44.5 -10.5t31 -15t18 -20t13.5 -27.5q6 -15 7.5 -44t-2.5 -54l-10 -61l-286 6q-553 9 -570 -19q-5 -8 11 -12q8 -1 18 -1q48 0 44 -19q-3 -17 -50 -39l-60 -29
v58q0 59 -18 57q-11 0 -23 -25q-18 -36 -33 -142.5t-3 -118.5t142.5 -27.5t319.5 -27.5l182 -12l72 -66q72 -67 135 -117l64 -50l-8 -189q-7 -188 -15 -293l-9 -104l-70 -40q-70 -39 -170 -124l-101 -84l-460 -6q-461 -5 -511 12t-78 64t-38 130l-10 85h223q92 0 197 -5.5
t160 -13.5q194 -27 337 -14t181 60q17 21 21.5 53.5t2 101.5t-15.5 229q-2 20 -22 27t-93 15q-112 12 -291 44q-74 12 -189.5 23.5t-203.5 14.5l-213 8v57q0 72 18.5 238t42.5 306q2 13 6 37q31 186 43 209q7 16 27 18q1 1 4 1q4 0 6 1z" />
    <glyph glyph-name="six" unicode="6" horiz-adv-x="1526" 
d="M448 165q-4 21 5.5 24t48.5 -7q13 -3 23 -12.5t10 -18.5q0 -15 -20.5 -18t-42 6.5t-24.5 25.5zM535 450q67 6 100 9q13 0 25.5 -3.5t16.5 -9.5q5 -8 -20 -12q-16 -3 -44 -3q-31 0 -67.5 -8t-60.5 -21q-52 -27 -53 -14q-1 8 16 31q9 11 33.5 20t53.5 11zM535 887
q0 18 13 21t23 -12q3 -5 -1 -11.5t-13 -10.5q-10 -3 -16 0.5t-6 12.5zM720 1431q402 9 514 14l113 4l-10 -70q-10 -70 -10 -98q0 -16 -11 -22t-40 -6q-46 0 -246.5 -22t-304.5 -39q-102 -17 -111 -41.5t-32 -51.5q-14 -16 -15.5 -30t8.5 -40t9 -36t-13 -15q-7 -2 -11 0.5
t-6.5 13t-3 28.5t-0.5 47q0 65 -5 81t-25 16q-30 0 -30 -4t-21 -170q-17 -142 -12.5 -193.5t34.5 -51.5q12 0 20.5 6.5t8.5 15.5q0 13 5 16q16 8 228 7h169l291 -2l91 -86q37 -36 77.5 -69t60.5 -43q19 -10 34.5 -25t17.5 -25q7 -37 -7 -284t-25 -281q-8 -26 -15 -40.5
t-21.5 -27.5t-29.5 -19t-48 -10.5t-69 -6t-98 -2.5q-205 -3 -280 -19q-57 -12 -214.5 -27.5t-332.5 -26.5q-93 -6 -142 2t-79 35t-57 86.5t-34 111t-11 228.5q-3 105 2 273.5t14 302.5l21 321l62 131l61 131l63 2q64 2 466 11zM1145 509q-5 10 -15 14.5t-46.5 7.5t-90.5 4
t-165 1q-213 0 -267.5 -5t-100.5 -29q-63 -32 -80 -84.5t3 -149.5q17 -85 17 -141q0 -35 7 -46.5t33 -18.5q16 -4 78.5 -1.5t134.5 9.5q73 7 173.5 9t173.5 -2l173 -9l27 86q19 61 19.5 80t-18.5 54q-11 20 -21 56t-13 66q-7 73 -22 99z" />
    <glyph glyph-name="seven" unicode="7" horiz-adv-x="1429" 
d="M1299 50q7 11 11 -11q10 -61 -7 -189q0 -2 -1 -4q-19 -140 -48 -133q-3 1 -7 5q-7 7 17 160.5t35 171.5zM1319 102q0 24 4 23q2 0 3 -4q8 -19 0 -38q-5 -12 -7 5v14zM63 1473q26 28 62 32t110 -13q60 -14 199.5 -15t462.5 9q298 10 380 -2q88 -13 110 -62q18 -39 6 -156
q-1 -9 -3 -22q-16 -148 -52 -327q-55 -277 -99.5 -565.5t-58.5 -451.5q-18 -224 -22 -229q-3 -4 -110 32.5t-115 44.5q-7 7 8.5 333.5t31.5 491.5q15 164 36 239q22 79 37.5 199t7.5 142q-10 25 14 25q18 0 23 28t-11 38q-12 8 -194 18q-112 7 -151.5 14t-55.5 24
q-10 11 -21 15.5t-50.5 8t-94.5 4t-171 0.5h-312v55q0 56 33 90z" />
    <glyph glyph-name="eight" unicode="8" horiz-adv-x="1381" 
d="M511 550.5q0 21.5 3.5 25t14.5 -7.5q10 -10 10 -17.5t-10 -17.5q-11 -11 -14.5 -7.5t-3.5 25zM365 1389q85 17 164 20.5t243 -0.5q111 -3 193.5 -8.5t87 -10.5t1.5 -62.5t-12 -134.5q-25 -214 -19 -263q6 -48 41 -55q23 -5 96 7q88 14 91 9l52 -77l48 -72l-7 -354
q-6 -305 -22.5 -425t-57.5 -156q-24 -22 -49.5 -26t-109.5 2q-75 5 -138.5 -1.5t-186.5 -32.5q-188 -39 -369 -44.5t-237 26.5q-35 21 -52 31t-35 29t-24 30.5t-13 42t-9 57.5t-6 84q-10 179 -3 477l8 299l50 10q20 4 44.5 17t37.5 26q16 16 22 37t8.5 67t2.5 166
q1 237 11.5 247.5t148.5 37.5zM828 1219.5q-12 18.5 -224 27.5q-182 7 -202 -2q-11 -4 -11 -16q0 -10 7 -25t16 -26q13 -15 15 -38.5t-6 -82.5q-11 -78 -0.5 -128t37.5 -50q22 0 13 -31q-7 -22 2.5 -26t63.5 -1q76 5 87 -6q14 -14 47.5 -9t43.5 23q9 15 17.5 15.5
t28.5 -12.5q18 -11 30.5 -12t27.5 9q17 10 21 37.5t1 111.5q-3 133 -3 178t-12 63.5zM1090 315l-4 363l-44 3q-45 3 -150 -18q-43 -8 -142 -14.5t-195 -6.5q-233 -2 -260 -22q-11 -8 -15.5 -17t-6.5 -47.5t-1 -90.5t4 -170q9 -305 18 -336q4 -12 21 -29t37 -28
q34 -19 69.5 -20.5t150.5 9.5q405 39 488 55l34 6z" />
    <glyph glyph-name="nine" unicode="9" horiz-adv-x="1350" 
d="M408 924q0 6 7 10.5t16 4.5t15.5 -4.5t6.5 -10.5t-6.5 -10.5t-15.5 -4.5t-16 4.5t-7 10.5zM483 939q0 6 6.5 10.5t15.5 4.5t16 -4.5t7 -10.5t-7 -10.5t-16 -4.5t-15.5 4.5t-6.5 10.5zM588 954q0 6 15.5 10.5t36.5 4.5t36.5 -4.5t15.5 -10.5t-15.5 -10.5t-36.5 -4.5
t-36.5 4.5t-15.5 10.5zM752 969.5q0 6.5 13 10.5t32 4t32 -4t13 -10.5t-13 -11t-32 -4.5t-32 4.5t-13 11zM929 1003q40 7 44 9l2 -5q1 -7 1 -15q0 -23 -44 -23q-43 0 -44 14t41 20zM846 192q8 12 12 17.5t7 8.5t4.5 -1t2 -11t0.5 -22q0 -37 -23 -37q-20 0 -20.5 8t17.5 37z
M585 405q24 5 30 1.5t-4 -18.5q-5 -10 -18.5 -14t-24 -0.5t-10.5 12.5q0 6 7.5 11.5t19.5 7.5zM34 633q0 22 38 22q31 0 36 -12.5t-23 -23.5q-28 -10 -39.5 -7t-11.5 21zM685 1423q297 21 427 22.5t155 -16.5q17 -13 26.5 -41t16 -106.5t8 -196t2.5 -333.5q0 -339 -5 -446
t-25 -197q-29 -134 -62 -213l-32 -80l-106 10q-214 18 -302.5 22.5t-107.5 -2.5q-27 -10 -306 -11l-280 -1l-13 56q-14 55 -19 152l-5 97l67 9q67 9 121 21q35 7 46 3.5t17 -24.5q3 -12 6.5 -17.5t8.5 -11t23 -10t37 -8.5t63 -12q71 -13 259 -7.5t215 22.5q19 11 30 225
t14 267t-29 88q-16 19 -34.5 25t-57.5 8t-146 1q-207 -2 -437 -11l-230 -10l10 221q9 213 31 322.5t62 144.5q39 34 70 24q29 -10 130.5 -7t351.5 21zM969 1241q-60 11 -345 11q-227 1 -268 -8q-36 -7 -49 -35q-4 -7 -10 -23q-18 -47 -33.5 -174t-4.5 -139q24 -24 41 31
q12 39 26 132q22 148 33 159t82.5 2.5t71.5 -20.5q0 -6 -17 -9.5t-42 -3.5q-38 0 -53 -9t-32 -40q-10 -20 -19.5 -64t-12.5 -86l-8 -100l66 -2q155 -2 339 10.5t244 29.5q24 7 42 87t14 159l-5 82z" />
    <glyph glyph-name="colon" unicode=":" horiz-adv-x="410" 
d="M208 416q75 7 87 -2q5 -3 7 -49.5t0 -107.5l-4 -148h-67q-48 0 -58.5 7.5t-18.5 46.5q-12 53 -16 149l-5 96zM137 885q26 6 94 4l67 -2l9 -135q9 -134 2 -146q-5 -11 -123.5 -10.5t-125.5 11.5q-3 5 3 16t19 22q17 15 23 40.5t6 88.5q0 65 5 85.5t21 25.5z" />
    <glyph glyph-name="semicolon" unicode=";" horiz-adv-x="502" 
d="M63 -191q-1 22 5 21l2 -2q9 -9 1.5 -28t-8.5 9zM76 86v35l153 -9q152 -10 159 -16.5t13 -106.5q2 -30 2.5 -42t-2 -32t-5 -28t-14 -30t-21 -37.5t-33.5 -51.5q-32 -51 -67 -115t-52 -104q-44 -105 -76 -104q-13 0 -20 20q-11 29 8.5 182.5t38.5 182.5q25 38 13 58t-59 20
h-54l7 71q8 71 9 107zM149 438l5 99l103 -4l104 -3v-110v-110l-101 10q-101 9 -108.5 13.5t-2.5 104.5z" />
    <glyph glyph-name="less" unicode="&#x3c;" horiz-adv-x="130" 
 />
    <glyph glyph-name="equal" unicode="=" horiz-adv-x="130" 
 />
    <glyph glyph-name="greater" unicode="&#x3e;" horiz-adv-x="130" 
 />
    <glyph glyph-name="question" unicode="?" horiz-adv-x="1506" 
d="M618 35q10 11 98.5 2.5t101.5 -22.5q6 -5 8.5 -35.5t0.5 -65.5l-4 -89l-83 5q-94 5 -112 15q-20 11 -22 53v38q0 87 12 99zM355 510q19 8 53 9q22 1 27.5 -11t5.5 -65q0 -63 -13 -64q-13 0 -19 59q-3 27 -11 36t-29 8q-31 -1 -33 12q-1 8 19 16zM905 1111q10 12 43 18.5
t62 3.5t29 -14q0 -6 -11 -10.5t-27 -4.5q-38 0 -68 -16q-28 -15 -37.5 -7t9.5 30zM344 1443q78 17 209.5 11.5t418.5 -37.5q269 -29 351 -33l83 -4l-2 -321l-1 -322l-60 -209l-60 -209l-182 -11q-108 -7 -162.5 -16.5t-78.5 -27t-28 -48.5l-5 -44l-98 11q-98 10 -111 18
q-5 3 -8.5 49t-3.5 108v21q0 34 -0.5 48t3 35t5 27t13 18t18.5 14t30.5 8.5t40 8.5t55.5 8q16 2 25 3q184 27 184 -30q0 -6 10 -9t23 -1q23 3 30 20.5t14 88.5q20 206 39 363.5t25 167.5q8 13 -5.5 21t-356 12.5t-358.5 15.5q-28 17 -42 -42q-10 -39 -17 -120l-13 -134h-134
h-135l1 182q0 105 5.5 151t19.5 68q26 40 103.5 82t154.5 58z" />
    <glyph glyph-name="at" unicode="@" 
 />
    <glyph glyph-name="A" unicode="A" horiz-adv-x="886" 
d="M35 1296l5 264l327 -1q326 -1 407 -13l82 -12l-9 -183q-9 -182 -17 -220q-8 -45 -30.5 -344.5t-29.5 -460.5q-9 -195 -18 -335l-9 -139l-63 7q-62 7 -75 8q-11 0 1 17l3 3q17 21 17.5 325.5t-16.5 325.5q-18 21 -119 21q-42 0 -93.5 7t-81.5 16q-53 16 -67 15t-32 -23
q-25 -30 -34.5 -185t2.5 -338q12 -185 4 -199q-7 -11 -71 -8t-77 16q-8 8 -10.5 569t4.5 867zM587 1373q-8 7 -57 13t-109 7q-32 1 -51 1t-40.5 -1t-32.5 -2.5t-23.5 -6t-17.5 -9t-10.5 -14.5t-6.5 -18.5t-1.5 -25.5t1 -32t4.5 -40q11 -107 20 -234l9 -128l68 -20
q67 -19 110 -41q91 -46 147 10q20 20 23.5 41.5t-3.5 88.5q-11 101 -10 248t-20 163z" />
    <glyph glyph-name="B" unicode="B" horiz-adv-x="1401" 
d="M334 1138q-3 16 -1.5 27t6.5 11t9 -9t4 -21t4.5 -21t11.5 -9q6 0 8 -4.5t-2 -10.5q-14 -24 -29 3q-7 12 -11 34zM1134 1170q0 10 5.5 15.5t12.5 2.5q23 -8 24 -26q1 -16 -18 -16q-10 0 -17 7t-7 17zM31 1436q8 15 99 9.5t223 -29.5q113 -20 189.5 -23.5t253.5 2.5
q180 6 250 2.5t169 -24.5q148 -31 154 -31q3 -9 1 -65t-7.5 -144t-11.5 -148q-6 -55 -18 -68q-17 -20 -95 -28q-24 -3 -90 -8q-102 -8 -153.5 -26.5t-70.5 -54.5q-15 -29 2 -61t57 -53t87 -21q51 0 162.5 -26.5t115.5 -40.5q4 -16 -3 -284q-6 -201 -17 -244q-11 -47 -47 -60
q-19 -8 -85 -15q-84 -9 -190 -26q-64 -10 -331 -14t-550 1l-54 2l-12 297q-13 368 -22.5 770t-5.5 411zM1164 1217q0 14 -436 15.5t-445 -12.5q-6 -11 3 -142l10 -132l137 8q290 18 536 59.5t283 78.5q15 14 15.5 44.5t-11.5 57.5t-30 32q-11 3 -25 0t-20 -9q-17 -17 -17 0z
M517 520q-38 8 -62.5 13t-50.5 7.5t-41 3t-30.5 -4.5t-23 -11.5t-15 -21.5t-10 -29.5t-4.5 -41.5t-1.5 -52.5t1.5 -65.5l4 -171l218 -14q219 -14 354 4.5t256 32.5q136 17 136 38q0 10 -22 24q-21 13 -26.5 36t-5.5 98q0 121 -17 128q-7 2 -19 -7q-18 -14 -280 0t-361 34z
" />
    <glyph glyph-name="C" unicode="C" horiz-adv-x="1308" 
d="M411 409l-8 37l26 -40q11 -17 27.5 -33.5t29.5 -22.5q19 -9 18 -12q0 -3 -36 -4q-49 0 -49 18.5t-8 56.5zM216 1293l42 95l92 -12q92 -12 455 -11l364 1l8 -46q8 -46 18 -114l10 -68l-371 -3q-371 -3 -393 -20q-9 -7 -29 -57t-40 -113q-34 -108 -40.5 -164t-5.5 -222
q2 -233 23 -293q14 -42 26.5 -51t52.5 -10q59 -1 194.5 -37t240.5 -33t260 -6q49 -2 76 -4.5t48 -8.5t27 -13t3 -21t-14 -30t-32 -43q-46 -58 -66 -73q-41 -29 -142 -34q-66 -2 -340 3q-373 7 -450 11t-93 14q-21 14 -45 128t-43 291q-22 199 -22 280.5t21 202.5
q15 90 32 144t65 162z" />
    <glyph glyph-name="D" unicode="D" horiz-adv-x="1530" 
d="M825 32q0 6 6.5 7.5t15.5 -1.5q23 -8 23 -14t-23 -6q-9 0 -15.5 4t-6.5 10zM971 52q-12 5 5 7q6 1 14 1q25 0 24 -5q-1 -1 -5 -3q-19 -7 -38 0zM1162 792q0 104 3 95q1 -2 2 -15q5 -71 0 -150q-3 -40 -4 -4q-1 24 -1 74zM240 1415q119 14 179 14.5t103 -12.5
q64 -18 192 -34t276 -24q134 -7 178.5 -17t130.5 -53q5 -3 16 -8q81 -41 106 -65q42 -42 54 -145q11 -85 16 -425q1 -36 1 -55l8 -516l-71 -77q-53 -57 -167.5 -138t-156.5 -91q-32 -7 -303 -22t-338 -22q-56 -6 -112.5 8t-87.5 41q-11 9 -31 16.5t-37 9.5q-54 4 -68 9.5
t-26 29.5q-7 12 -13.5 70t-9.5 128q-6 169 -15.5 312t-14.5 511.5t-15.5 395.5t7 63.5t51.5 58.5q15 10 58 20.5t90 16.5zM689 1184q-241 30 -351 20q-40 -3 -31 -13q17 -16 9 -456q-6 -381 3 -526.5t41 -172.5q35 -31 28 -62.5t-54 -46.5q-53 -17 -48 -32q6 -20 111 -16
q132 6 461 62.5t398 86.5q41 16 60 39t27 62.5t7 113.5q0 152 -33 248q-19 55 -33 30q-8 -16 -11 -63q-1 -21 -3 3q-2 43 -3 181q-2 218 -19 312t-55 94q-16 0 -24 -9.5t-10 -30.5q-5 -43 -20 -41q-11 1 -19 24q-4 10 1 22.5t16 21.5q18 13 18.5 20t-15.5 23q-10 9 -41 20
t-64 16q-82 14 -127.5 31.5t-218.5 38.5z" />
    <glyph glyph-name="E" unicode="E" horiz-adv-x="1450" 
d="M565 346q-3 8 2 10.5t16 -1.5q10 -4 17 -11t7 -13q0 -15 -18 -8.5t-24 23.5zM488 352l1 64l22 -51q33 -77 -10 -77q-6 0 -10 19t-3 45zM562 414q0 8 15.5 14.5t40.5 8.5q46 3 46 -2t-54 -23q-28 -10 -38 -9.5t-10 11.5zM457 921q0 41 13 38q1 0 2 -1q6 -4 10.5 -17.5
t4.5 -28.5t-4.5 -26t-10.5 -11t-10.5 13.5t-4.5 32.5zM445 1021q-3 10 10.5 15t46.5 5q52 0 52 -9q0 -5 -9 -15q-16 -21 -54.5 -19t-45.5 23zM85 1329q80 37 76 3q0 -2 -1 -4q-2 -9 11 -10q28 -5 406 24q233 17 422.5 10t242.5 -35q50 -27 63 -27q13 -1 26 -44.5t4 -57.5
q-3 -5 -53 -8.5t-116 -3.5q-155 0 -446.5 -31.5t-324.5 -52.5q-18 -11 -7 -140q1 -20 3 -53q2 -26 2.5 -38t4.5 -30t4.5 -24t9.5 -17t12.5 -13.5t20.5 -7.5t26 -5t36 -1.5t44.5 -0.5t57.5 1q49 1 78 2q274 3 439 19q165 15 188 13q26 -3 30 -24q1 -5 1 -48v-75h-133
q-54 0 -119 -7t-101 -17q-88 -23 -296.5 -45t-244.5 -45q-23 -15 -28 -34q-7 -30 9 -201q1 -10 2 -23q5 -52 1.5 -66.5t-23.5 -20.5q-13 -4 -21.5 -15.5t-8.5 -24.5q0 -15 13 -20q31 -10 307 -8q56 1 184 2l504 6v-101q0 -42 4 -74.5t11 -35.5q21 -13 13 -40.5t-36 -40.5
q-36 -16 -201.5 -32.5t-272.5 -13.5q-113 2 -161.5 -8.5t-93.5 7.5q-26 11 -46 10.5t-51.5 -12t-52.5 -12t-49 10.5q-32 12 -46 9.5t-35 -23.5q-33 -31 -91 -31q-42 0 -61.5 14.5t-78.5 87.5q-13 17 -37.5 167.5t-46.5 350.5q-36 320 -26 782l4 159z" />
    <glyph glyph-name="F" unicode="F" horiz-adv-x="1260" 
d="M537 561q0 17 5.5 22t18.5 0q24 -9 42 -9q14 -1 -13 -23q-26 -22 -41 -22q-12 0 -12 32zM507 1033q0 49 6.5 58.5t38.5 9.5h45l-25 -39q-16 -24 -17.5 -37.5t9.5 -30.5q12 -19 8.5 -24t-27.5 -5q-26 0 -32 11t-6 57zM913 1407q53 9 108 13.5t80 1.5q77 -9 107 -53
t-1 -103l-23 -45h-161q-249 0 -401 -8t-169 -23q-14 -11 -17.5 -48t-0.5 -137q3 -109 8.5 -139t22.5 -33q26 -4 41 34q9 23 19 29t31 2q133 -26 443 -23q156 1 188 -7q35 -9 40 -42q4 -18 -2 -88l-4 -66l-324 -8q-127 -3 -202.5 -7t-123 -12t-64 -19t-16.5 -29
q0 -11 -7 -16.5t-19 -3.5q-32 6 -53.5 -55.5t-31 -186.5t-6.5 -307q4 -266 -11 -267q-36 -3 -137.5 1.5t-122.5 9.5q-22 5 -27.5 21.5t-5.5 79.5q0 92 -24 367q-17 190 -17 261.5t17 204.5q25 192 42 429l18 237l61 16q56 15 99 16t270 -9q141 -5 222 -2.5t154 14.5z" />
    <glyph glyph-name="G" unicode="G" horiz-adv-x="1386" 
d="M831 274.5q0 12.5 4.5 19t10.5 2.5q15 -9 15 -31q0 -9 -4.5 -15.5t-10.5 -6.5t-10.5 9.5t-4.5 22zM545 337q0 79 13 79q14 -1 20 -93q5 -80 -14 -80t-19 94zM701 913q8 22 33 13q17 -7 17 -12.5t-16 -21.5q-20 -20 -32 -12.5t-2 33.5zM763 1114q-23 10 2 12q10 1 32 2
q26 1 47.5 -3t24.5 -9q5 -8 -10 -11q-36 -9 -85 6q-6 1 -11 3zM261 1438q134 34 267 36t345 -27q355 -48 401 -62q23 -8 34 -22q19 -26 19.5 -97.5t-18.5 -83.5q-8 -5 -64.5 -7t-127.5 0q-173 6 -451 7l-277 2l-13 -46q-13 -42 -16 -478.5t9 -470.5q7 -19 3 -28t-22 -15
q-12 -4 -21 -13.5t-9 -18.5q0 -13 7.5 -15t26.5 5q37 13 308 7t300 -21q13 -7 30.5 -9t28.5 2q16 6 19 41q4 40 -2 225l-8 255h149h150l-3 -331q-2 -191 1.5 -266t15.5 -89q26 -31 0 -53t-98 -30q-87 -10 -505 -8l-417 3l-16 -43q-6 -15 -9.5 -21t-8.5 -11.5t-17.5 -5.5
t-25 1t-42.5 4q-88 11 -98 17q-15 9 -23 91.5t-6 195.5q1 63 -5.5 174t-17.5 202q-21 188 -23.5 486t17.5 372q12 44 31.5 67.5t59 40.5t122.5 38z" />
    <glyph glyph-name="H" unicode="H" horiz-adv-x="1620" 
d="M1005 305q0 6 14 9.5t35 3.5l49 -1l-38 -21q-28 -15 -44 -13t-16 22zM463 334q0 6 6.5 10.5t15.5 4.5q22 0 31 -15q4 -6 -2.5 -10.5t-19 -4.5t-22 4.5t-9.5 10.5zM421 1327q0 33 4 32q1 -1 3 -6q7 -26 0 -53q-4 -15 -6 5q-1 9 -1 22zM212 1357.5q108 26.5 116 27.5
q2 1 3 -36t1 -100t-1 -137l-5 -274l39 -53q38 -53 47 -79q5 -15 17.5 -19t38.5 -1q109 16 175 20.5t189 3.5q119 0 155.5 5t57.5 23q21 20 29.5 20.5t25.5 -16.5q15 -14 25.5 -16t25.5 7q24 16 36.5 102t18.5 288l6 196l107 4q83 4 107 -8q35 -18 46 -93q9 -58 16 -278
q10 -302 27 -400q20 -117 43.5 -279.5t29.5 -221.5q8 -85 -30.5 -122.5t-155.5 -58.5l-47 -8l-18 274q-18 273 -32 308q-14 37 -43.5 43t-95.5 -14q-109 -33 -329 -33.5t-384 31.5q-48 9 -79.5 -20t-23.5 -75q8 -42 22 -253q12 -174 2 -205q-8 -26 -39 -22q-8 1 -22 4
q-53 12 -115 34t-76 33q-18 14 -20 6q0 -10 -21 6q-18 15 -30.5 259t-16.5 665l-4 388l37 24q37 24 145 50.5z" />
    <glyph glyph-name="I" unicode="I" horiz-adv-x="335" 
d="M39 1239l-9 193h138h137l-9 -65q-20 -138 -27 -370t4 -420q7 -109 8.5 -230.5t-2.5 -182.5l-10 -146h-104h-103l-2 243q-4 637 -21 978z" />
    <glyph glyph-name="J" unicode="J" horiz-adv-x="1061" 
d="M674 1496q33 7 189.5 -0.5t165.5 -15.5q4 -5 1 -74t-12 -162q-22 -226 -49 -678l-26 -452l-88 -108l-88 -107l-92 -10q-91 -10 -267 -4q-112 3 -151.5 9.5t-65.5 26.5q-41 31 -52 53q-20 40 -55.5 182t-43.5 212l-10 103l44 -18q18 -7 71.5 -12.5t110.5 -6.5l140 -1
l-2 -72q-2 -66 21.5 -107t62.5 -41q15 0 28.5 4.5t17 10.5t18 7.5t31.5 -1.5q42 -9 76.5 21t48.5 86q14 63 23 216t-1 189q-4 17 -17.5 33.5t-28.5 23.5l-36 17l3 335q2 282 11 317q5 20 19 24h3z" />
    <glyph glyph-name="K" unicode="K" horiz-adv-x="1516" 
d="M997 680q9 15 24 15t6 -15t-24 -15t-6 15zM373 838q0 19 5 25.5t17 1.5q13 -4 14.5 -12.5t-7.5 -23.5q-11 -20 -17 -25.5t-9 3t-3 31.5zM1429 962q18 18 30 17.5t12 -20.5q0 -8 -9 -16.5t-21 -11.5q-25 -7 -28.5 2.5t16.5 28.5zM93.5 1538q30.5 13 60.5 5.5t82 -16.5
l51 -9l-10 -235q-9 -210 -9 -244t10 -156l12 -136h49q22 0 37 2t44 18t56 35.5t88.5 69.5t124.5 104.5t178 154.5q128 111 216.5 177.5t206.5 138.5l127 78l34 -40q22 -25 28.5 -53t6.5 -99v-112l-110 -53q-215 -103 -430 -332q-79 -83 -105 -102.5t-50 -11.5
q-45 16 -72 1.5t-26 -50t29 -85.5q27 -46 247 -294.5t341 -370.5l87 -87l-125 9q-125 10 -165.5 14t-172.5 132q-117 112 -294 267.5t-216 179.5q-26 16 -35 15.5t-23 -19.5q-8 -10 -23 -17t-26 -5q-16 2 -21 -15q-8 -31 7 -304q1 -26 3 -65q8 -148 0 -166q-4 -10 -19 -10
q-29 0 -61 22.5t-42 7.5q-3 -6 -14.5 -10.5t-22.5 -4.5q-17 0 -25.5 11t-14 39.5t-11.5 92.5q-6 75 -31 256q-21 161 -23.5 382.5t15.5 389.5q10 90 10 145t-10 106q-24 131 -26.5 162.5t12.5 49.5q20 24 50.5 37z" />
    <glyph glyph-name="L" unicode="L" horiz-adv-x="1423" 
d="M604 319q9 15 30 15t30 -15q5 -10 -13 -14q-7 -1 -17 -1q-32 0 -32 11zM425 436q11 56 16 43q5 -9 5 -58q0 -63 -15 -48q-7 6 -8.5 24.5t2.5 38.5zM424 982q14 23 18 -2q4 -21 4 -93q-1 -105 -9 -98q-9 10 -14.5 95.5t1.5 97.5zM157 1339l101 10l18 -323q19 -324 37 -497
q25 -253 81 -240q14 4 29 25q13 17 17 17t11 -18q10 -26 -16 -34q-53 -15 -77.5 -34.5t-24.5 -46.5v-37h301q301 1 530 14l229 13v-82q0 -183 -43 -202q-24 -11 -370 -22.5t-519 -29.5q-141 -15 -268 -15.5t-141 12.5q-14 15 -20.5 738.5t7.5 731.5q17 11 118 20zM441 1362
q21 20 26 -11t-2 -142q-10 -184 -23 -181q-11 3 -11 150q0 174 10 184z" />
    <glyph glyph-name="M" unicode="M" horiz-adv-x="1687" 
d="M499 -117.5q0 12.5 4 21t10.5 8.5t11 -8.5t4.5 -21t-4.5 -21.5t-11 -9t-10.5 9t-4 21.5zM1021 298q33 67 44 63q2 0 3 -3q4 -21 -28.5 -83t-47.5 -62q-11 0 26 78q2 3 3 7zM328 316q10 81 23 83q14 -8 11 -69t-21 -147l-20 -98l-1 70q-2 69 8 161zM1199 621
q10 19 20.5 29.5t17 6.5t3 -16.5t-15.5 -28.5q-30 -41 -38 -34q-7 6 13 43zM333 755q0 12 4 21t10 9q12 0 20.5 -21t0.5 -30q-14 -14 -24.5 -8t-10.5 29zM1417.5 1385.5q81.5 13.5 98.5 14.5q24 3 51 -270t39 -631q10 -338 12 -372q0 -14 4.5 -24t9 -10t11.5 -10t12 -23
q9 -24 -15 -84t-60 -103q-19 -24 -68.5 -20t-74.5 31q-17 19 -21 70q-7 71 -4 499q3 334 -0.5 441.5t-16.5 125.5q-22 28 -49 13.5t-42 -62.5q-21 -68 -93 -206.5t-149 -257.5q-106 -166 -148 -249q-23 -45 -36.5 -68t-25.5 -34t-20 -8.5t-20 16.5q-23 27 -125.5 230
t-149.5 278l-110 173q-45 70 -106 129.5t-74 46.5q-3 -4 1 -17t14 -27q15 -23 17.5 -123t-2.5 -451l-9 -539l-54 10q-146 26 -157 65q-8 25 -18 430t-9 660q0 134 2.5 185t8 73.5t21.5 38.5l30 31l87 -58q86 -58 292 -159q84 -42 173.5 -93t129.5 -81l98 -73l88 72
q37 29 98.5 94t112.5 127q122 150 143.5 168t103 31.5zM438 1311q-77 71 -77 87q0 3 3 3q10 0 43 -26t69 -64q86 -86 71.5 -86.5t-109.5 86.5z" />
    <glyph glyph-name="N" unicode="N" horiz-adv-x="1513" 
d="M465 -125q-1 43 4 39q1 -1 2 -5q7 -27 1 -61q-4 -20 -6 3q-1 9 -1 24zM876 105q-70 142 -57 131q16 -16 78.5 -141t57.5 -130q-2 -2 -13 16.5t-28.5 51.5t-37.5 72zM408 917q-4 18 -1 19q5 0 30 -46q51 -91 36 -100q-4 -2 -12 3q-14 8 -29 43t-24 81zM898 1055.5
q0 13.5 5 13.5q7 0 16 -22q6 -17 -1 -16q-2 0 -5 2q-15 9 -15 22.5zM1068 1296q0 75 3 70q1 -2 3 -13q6 -57 0 -113q-4 -29 -5 2q-1 19 -1 54zM893 1372q-3 12 -1.5 21t7.5 9t10 -9t4 -21q0 -30 -6 -30t-14 30zM145 1392q17 7 65 12t99 5h122l57 -90q56 -90 163 -227
t164 -233q62 -106 104 -169t99 -137q68 -87 106 -156q29 -53 57 -78t42 -11q10 11 16 125t-17 161q-16 32 -47 287.5t-40 432.5l-4 86l79 10q73 9 119.5 -8t61.5 -57q13 -36 24 -264t30 -868q3 -87 10 -158.5t16 -92.5q33 -81 -27 -118t-225 -37h-121l-43 102
q-62 148 -130.5 272t-196.5 320q-172 263 -231 370q-33 61 -51 83t-32 17q-25 -7 -30 26t-23.5 38.5t-32.5 -21.5q-17 -32 -33.5 -269t-23.5 -554q-7 -283 -18 -337q-10 -50 -38 -58q-13 -4 -47 -4q-31 0 -48.5 6t-32 26t-22.5 51.5t-18 89.5q-24 135 -13 323q12 217 29 693
q5 139 12.5 246.5t13.5 119t22.5 25t33.5 20.5z" />
    <glyph glyph-name="O" unicode="O" horiz-adv-x="1343" 
d="M902 -8q32 41 32 20q0 -6 -26 -27q-18 -13 -19 -12t13 19zM947 52q20 26 26 26q21 0 -20 -32q-18 -14 -19 -13t13 19zM402 221q-7 43 -5 44t8 -13q1 -3 4 -9q16 -37 26.5 -82.5t43.5 -49.5q14 -2 24 -8t10 -12q0 -7 -7 -9t-17 2q-25 9 -38 9t-26.5 34.5t-22.5 93.5z
M364 475q-1 22 5 21q1 0 2 -1q9 -9 2 -29q-7 -17 -9 4v5zM731 1056q-4 6 -2 10.5t8.5 4.5t11 -4.5t4.5 -10.5q0 -15 -6.5 -15t-15.5 15zM309 1031q-8 52 6 52q2 0 5 -1q8 -3 16.5 -24.5t12.5 -48.5q5 -31 9.5 -91.5t8.5 -126.5t6 -126.5t1.5 -98.5t-3.5 -35q-10 10 -32 226
t-30 274zM505 1489q45 14 128 9.5t283 -8.5l200 -4l89 -89l90 -89v-513q0 -514 9 -664l9 -151l-85 -115l-85 -115l-251 7q-252 8 -447 19q-124 7 -163 5t-51 -16q-16 -20 -26 -12q-12 12 -53 134q-52 157 -86.5 491t-35.5 687q0 144 5.5 199.5t25.5 109.5l30 83l185 9
q184 9 229 23zM1036 1256q-12 16 -43 22.5t-112 9.5q-135 5 -180 -1t-203 -21.5t-204 -29.5l-46 -15l3 -266q2 -196 29 -478t53 -374q6 -23 18.5 -42.5t22.5 -22.5q26 -8 146 -66q104 -49 214 -73.5t195 -17.5q37 3 96 103q62 104 74 174q6 40 -15 40q-6 0 -11 -5.5
t-5 -13.5q-1 -8 -5 5q-4 12 -8 34q-5 23 -6.5 180.5t1.5 353.5q3 282 0.5 385t-14.5 119z" />
    <glyph glyph-name="P" unicode="P" horiz-adv-x="1521" 
d="M574 725q0 6 6.5 10.5t15.5 4.5q21 0 30 -15q4 -6 -2.5 -10.5t-19 -4.5t-21.5 4.5t-9 10.5zM468 726q0 40 7.5 41t44.5 -33l39 -36l-45 -7q-31 -5 -38.5 1t-7.5 34zM1059 775q-16 4 5 6q8 1 21 1q34 0 33 -4q-1 -1 -6 -3q-27 -7 -53 0zM468 874.5q0 6.5 4.5 11t10.5 4.5
q16 0 16 -6.5t-16 -15.5q-6 -4 -10.5 -2t-4.5 8.5zM546 1014q110 6 145 9q29 2 27 -9q0 -1 -1 -3q-3 -6 -36 -13t-77 -11.5t-74.5 -11t-30.5 -12.5q0 -5 -7 -9t-16 -4q-23 0 -23 6t-9 30q-1 7 0 11.5t14 8t32.5 5.5t55.5 3zM882 1026q-18 9 9 10q20 0 66 -3q106 -7 154.5 -7
t48.5 -22q0 -13 -9.5 -14.5t-38.5 6.5q-49 15 -124.5 15.5t-105.5 14.5zM499 -31q1 66 8 65q2 0 6 -9q9 -20 12.5 -54.5t0 -61.5t-11.5 -27q-7 0 -11 25.5t-4 61.5zM1082.5 112.5q-19.5 7.5 8.5 9.5q22 1 21 -6q0 -1 -1 -2q-9 -9 -28.5 -1.5zM485 99q-1 22 5 21q1 0 3 -2
q9 -9 1 -28q-7 -17 -9 3v6zM468 337q0 16 10.5 21t38.5 5q38 -1 39 -5q0 -3 -24 -19q-13 -9 -23 -23.5t-10 -24.5q0 -16 -3 -16.5t-13 13.5q-15 23 -15 49zM1409 386q70 23 78 18q4 -2 4 -18q0 -13 -15 -17.5t-56 -3.5l-71 2zM1415 1244q-27 29 -18 36q11 8 42 -23
q25 -25 23 -44q-1 -7 -7 -7q-4 0 -40 38zM98 1272q19 10 39.5 14.5t30.5 0.5q34 -15 519 -53q225 -17 419 -1l194 17l88 -78l87 -79l1 -143q2 -142 9 -282q4 -57 2.5 -98t-6.5 -42q-12 0 -290 -13q-244 -11 -432.5 -28.5t-252.5 -35.5q-60 -17 -90 -18q-18 -1 -23 -18
q-8 -24 -12 -192q-2 -86 1 -169t8 -113q9 -50 7 -62t-21 -12q-11 0 -19.5 -5.5t-9.5 -13.5q0 -7 -11 -20.5t-27 -25.5q-32 -23 -75 -19t-66 32q-20 24 -32.5 19t-25.5 -42q-11 -32 -26 -43t-24.5 4.5t-7.5 49.5q4 57 13 72q16 26 20 83t-6 105q-29 128 -43.5 551t4.5 564
q7 45 17 62t41 32zM1156 1067q-229 41 -507 10q-188 -21 -229 -14q-23 4 -32.5 1t-9.5 -16q0 -9 -6.5 -15.5t-15.5 -6.5q-14 0 -18.5 -23.5t-4.5 -95.5q0 -76 4.5 -135t12.5 -90.5t18 -28.5q6 2 14 15t12 27q6 24 8 26q2 1 3 -4q2 -6 5 -30q4 -30 15 -37q15 -11 119 -25
l1 -1h1h1h1h1h1h1l1 -1h1h1h1h1h1h2q113 -16 234 -12t187 25q69 22 132 30t89 -2q36 -14 82 5t59 53q15 38 -2 118.5t-53 144.5q-26 46 -44.5 58t-86.5 24zM517 1361q-17 5 3 7q6 1 16 1q32 0 30 -5q0 -1 -4 -3q-18 -7 -45 0z" />
    <glyph glyph-name="Q" unicode="Q" horiz-adv-x="1419" 
d="M554 409q0 24 4 23q1 0 3 -4q8 -19 0 -38q-5 -12 -7 5v14zM783 758.5q10 86.5 17.5 86.5t3.5 -113q-2 -62 -7.5 -87.5t-16.5 -25.5q-9 0 -12.5 8t-1.5 19q7 26 17 112.5zM731 974q0 33 11 31q1 0 3 -1q5 -4 7 -15t-2 -24q-8 -29 -13 -28q-6 1 -6 37zM614 981q0 24 4 23
q2 -1 3 -5q8 -18 0 -37q-5 -13 -7 5v14zM1007 913q1 87 4 81q1 -2 2 -18q5 -72 -1 -135q-3 -32 -4 4q-1 23 -1 68zM507 1017q-1 21 5 20q1 0 2 -1q9 -9 2 -28q-7 -18 -9 3v6zM376 1175q4 6 15 11t21 4q16 0 17 -3q0 -3 -16 -16q-2 -1 -4 -3q-33 -25 -38 -12q-3 5 5 19z
M927 -58q67 11 79 13q5 1 8 -2.5t3 -10.5q0 -6 -23 -9.5t-56 -2.5l-79 2zM168 1389l21 40l502 -1l502 -1l50 -91q51 -92 84 -137t44 -158q6 -67 11.5 -246t6.5 -309.5t-4 -151.5q-7 0 -36 18q-18 11 -30 9t-30 -19q-32 -29 -28.5 -75.5t44.5 -128.5l46 -93l-26 -59
q-15 -33 -28.5 -46t-33.5 -13q-22 0 -29 8t-7 32q0 44 -18.5 81.5t-47.5 57t-60.5 25.5t-60 -11.5t-42.5 -55.5q-11 -28 -30.5 -37.5t-92.5 -21.5q-105 -17 -274.5 -27.5t-280.5 -6.5q-72 2 -93.5 -1.5t-21.5 -17.5q0 -36 -35 -19.5t-77 71.5l-58 77l-3 491l-2 491l59 143
q58 143 79 183zM769 1208q-241 10 -327 21q-29 4 -41.5 5t-25 1.5t-17.5 -5t-8.5 -11t-8.5 -19.5q-16 -40 -16 -55q0 -6 -5 -10t-12 -4q-16 0 -7 -402q7 -336 11.5 -416.5t15.5 -91.5q10 -11 195 -23q41 -3 63.5 -4.5t50 -1.5t40.5 0.5t29.5 6t23 10t14.5 16.5t10 22t4.5 31
t2.5 38.5v48.5v20v34t2 25t3 19.5t8 13t11.5 10t19 6t24.5 6t34 4.5q13 2 20 3q44 7 76.5 35t23.5 51q-7 20 5 50q10 24 12 -6q1 -10 1 -27q1 -63 26 -88q19 -18 26.5 -16.5t28.5 26.5q14 17 18.5 39t6.5 91t-2 199q-5 281 -27 332q-13 31 -43 17q-11 -5 -89 -5.5t-177 4.5z
" />
    <glyph glyph-name="R" unicode="R" horiz-adv-x="1463" 
d="M609 967q0 43 4 73.5t10 30.5q14 0 23 -71t0 -111q-9 -41 -19 -38q-17 11 -18 116zM672 1128q-2 7 5.5 12.5t19.5 5.5q31 0 22 -23q-7 -19 -23.5 -17t-23.5 22zM982 1167q8 8 21 -1q12 -7 11.5 -36t-12.5 -29t-20.5 29t0.5 37zM406 1165q-12 3 4 4q18 3 56 3
q90 0 113 -14q15 -9 2 -8q-7 0 -22 4q-26 5 -36 0.5t-15 -23.5q-7 -24 -12 -24t-28 22q-32 29 -62 36zM1392 84q-1 11 19 -5q3 -2 6 -6q10 -10 14 -21t-1 -16t-14.5 1.5t-16.5 20.5t-7 26zM519 378.5q0 6.5 19.5 11t48 4.5t48 -4.5t19.5 -11t-19.5 -10.5t-48 -4t-48 4
t-19.5 10.5zM356 391q-2 7 3 12.5t15.5 5.5t17 -7t6.5 -17q0 -19 -16 -18q-18 1 -26 24zM1316 431q-11 15 -9 19t23 4q13 0 22 -6.5t9 -16.5q0 -9 -4 -15.5t-9 -6.5q-14 0 -32 22zM1160 431q-18 27 -17 32.5t21 5.5q29 0 36 -38q2 -15 1 -26t-6 -11t-15 11t-20 26zM150 1385
q77 15 393 13.5t344 -16.5q29 -15 187.5 -18.5t184.5 10.5q15 8 29 3t36 -26l37 -38v-368v-368l-79 -12q-79 -12 -116.5 -14t-35.5 -26q2 -23 -7 -24q-9 0 -36 23q-19 18 -23 17t-4 -22.5t114 -211t187 -291.5q33 -45 36 -57.5t-15 -26.5q-11 -8 -46 -14t-75 -6h-94l-94 125
q-72 95 -201 228.5t-182 167.5q-23 15 -60.5 20t-121.5 4q-114 -1 -142 -10q-39 -14 -49 -64q-9 -40 -9 -212v-232l-120 6q-152 6 -150 42q0 8 8 16q15 15 0 131q-14 101 -16 395t7 553.5t24 274.5q14 13 89 28zM1057 1228q-8 8 -343 12.5t-359 -2.5q-38 -11 -43 -33
q-4 -15 14 -22q12 -4 17 -63t7 -218q5 -275 8.5 -278t153.5 17.5t255 29.5q107 10 198 35.5t122 53.5q30 27 32 40t-19 34q-20 19 -29 204.5t-14 189.5z" />
    <glyph glyph-name="S" unicode="S" horiz-adv-x="1569" 
d="M569 374q9 31 18 18q10 -15 6 -58q-3 -26 -9.5 -43.5t-14.5 -17.5q-13 0 -13 29.5t13 71.5zM1121 448.5q12 20.5 35 20.5q14 0 16.5 -10t-3.5 -40q-10 -47 -18.5 -52t-49.5 11q-36 15 -36 22q-1 4 16 13q28 15 40 35.5zM1177 544q0 7 6.5 11t16.5 4t14 -4t0 -11
q-9 -15 -23 -15t-14 15zM955 549q-17 5 2 7h17q31 0 30 -5q0 -1 -4 -2q-19 -8 -45 0zM1263 985q-12 5 5 7q6 1 14 1q25 0 23 -5q0 -1 -4 -3q-19 -7 -38 0zM1083 992l-64 16l82 1q68 1 69 -8q0 -3 -5 -8q-17 -17 -82 -1zM770.5 1444.5q97.5 11.5 323.5 14.5q149 2 202 -3
t111 -26q73 -27 115 -73q31 -32 7 -41q-15 -5 -9 -140l6 -135h-66q-129 0 -197 19q-19 7 -18 12q8 14 -1 82q-6 38 -14 52.5t-24 14.5q-11 0 -22.5 5t-15.5 12q-8 13 -312 8.5t-352 -19.5q-38 -11 -69.5 -85t-32.5 -154q0 -30 1 -43.5t2 -25.5t6.5 -16t12 -6t19.5 -4
q17 -2 29.5 0.5t12.5 7.5t256 7t514.5 -1.5t264.5 -8.5q7 -7 4 -386t-10 -430q-9 -64 9 -87q15 -18 11 -24t-64 -27q-25 -9 -60 -29t-60 -39q-35 -27 -40 -29q-31 -16 -157 -14q-52 0 -398 9q-91 3 -141 4.5t-113.5 4t-92.5 4t-70.5 5.5t-57 7t-42 10t-36 12t-28 15.5
t-28.5 19.5t-28 24l-85 73l-2 168q-4 235 10 247q4 4 46 -6q29 -8 30 -13q0 -4 -13 -11q-43 -24 -6 -33q40 -9 206 -9h227l-9 -34q-10 -34 -31 -67q-32 -50 -10 -71q29 -28 202 -47q38 -5 92 -10q114 -11 179.5 -10.5t142.5 11.5q36 5 55.5 8t44 9t35.5 8.5t25 11.5
t18.5 14.5t10 20.5t5.5 25.5t-0.5 33.5t-2.5 41t-6 51q-17 128 -18 195l-2 67l-392 1q-393 0 -468 3l-145 6q-49 3 -62 11t-25 42q-7 21 -27.5 50.5t-42.5 51.5l-55 52l10 112q14 157 25 229t28.5 114.5t53.5 85.5l58 71l226 -8q227 -9 324.5 2.5z" />
    <glyph glyph-name="T" unicode="T" horiz-adv-x="1539" 
d="M1485 823q1 8 4 -11q6 -40 14 -147q13 -187 -2 -218q-9 -19 -13 13q-3 26 -5 99q-6 217 2 264zM280 941l-30 40h55h56l-10 -64q-14 -84 -30 -93q-6 -3 -8 11q-1 8 -1 19q0 19 -9.5 44.5t-22.5 42.5zM507 973q0 9 6 13t16 0q9 -4 13.5 -10.5t1.5 -11.5
q-10 -16 -23.5 -12.5t-13.5 21.5zM760 1378q6 6 287.5 5.5t330.5 -7.5q33 -4 53 -11t35 -19.5t21.5 -35.5t9.5 -53.5t3 -80.5v-135l-102 -3q-101 -2 -187 2q-68 2 -133.5 -24.5t-83.5 -63.5q-13 -26 -15 -261t6 -484.5t22 -312.5q1 -5 -5 -8t-20.5 -4.5t-38.5 -1.5t-60 1
q-128 4 -130 7q-5 5 -42 709l-19 376l38 32q66 55 -19 117q-21 16 -43.5 21.5t-98.5 8t-222 -0.5q-275 -3 -305 6q-14 4 -11 16q7 26 16 80q18 102 115 103q105 1 350 10t248 12z" />
    <glyph glyph-name="U" unicode="U" horiz-adv-x="1570" 
d="M840 1515q1 48 12 46q9 -5 6 -52t-12 -47q-6 0 -6 53zM48 1530q10 14 16.5 20.5t26 11t44 5t81.5 0.5h143v-73q0 -41 -5.5 -59.5t-18.5 -23.5q-16 -6 -18.5 -27t3.5 -91q10 -109 -13.5 -273t-23.5 -310q0 -94 5.5 -126.5t24.5 -54.5q31 -34 31 -107q0 -45 7 -64t32 -39
q17 -13 37 -20t34 -4q32 7 266 17q93 4 147.5 6.5t103 7t71.5 8.5t41.5 11t26 15t13.5 22q8 17 22 31.5t26 18.5q16 5 26 20t18.5 44t14 86t9.5 133t8 198q13 376 23 498l9 122l84 9q55 7 77 2.5t53 -27.5l47 -36l-5 -652l-4 -653l-60 -51q-24 -21 -61.5 -61t-65.5 -76
q-46 -60 -64.5 -73t-51.5 -9q-88 10 -309.5 23t-319.5 14q-143 1 -203 25q-54 21 -107.5 21.5t-74.5 -20.5q-15 -15 -56 -10t-58 24q-24 26 -34.5 215.5t-15.5 676.5q-6 504 -16.5 560.5t14.5 94.5z" />
    <glyph glyph-name="V" unicode="V" horiz-adv-x="1544" 
d="M1486 533q17 56 21 56q7 -2 7 -16t-7 -35t-16 -33q-15 -20 -15 -14t10 42zM104 1514q20 9 55.5 14.5t66.5 4.5q54 -3 66.5 -11t27.5 -53q22 -60 50 -192q12 -54 28.5 -105.5t28.5 -67.5q27 -41 91 -218q69 -190 117 -290.5t91 -143.5t95 -43q31 0 68.5 37.5t37.5 67.5
q0 32 114 366t156 476q17 59 34 102t24 46q21 7 72.5 -13t72.5 -44q11 -12 22.5 -36.5t16.5 -48.5q8 -37 -4.5 -87t-70.5 -203q-88 -234 -129 -325q-35 -78 -79 -194t-70 -197q-45 -141 -58 -189t-20 -103l-11 -76l-170 -3q-171 -3 -219 -4q-19 0 -28.5 2t-22.5 16t-25 34.5
t-37 66.5q-123 232 -262 608l-63 170l8 232q5 140 3 186t-14 46t-14 -41t3 -166q8 -207 -1 -199q-21 19 -62.5 149.5t-52.5 212.5q-9 59 -10.5 92.5t6 58.5t23 38t45.5 27zM845 1554q18 30 20 -13q1 -9 1 -22q-1 -36 -3 -37t-8 14q-2 3 -4 9q-15 35 -6 49z" />
    <glyph glyph-name="W" unicode="W" horiz-adv-x="1802" 
d="M100 9q10 27 38 11t38 -56q10 -41 2.5 -44t-45.5 28q-43 35 -33 61zM357 899l-10 44l32 -49q13 -20 21.5 -46.5t8.5 -43.5l-2 -42l-20 47q-20 47 -30 90zM1337 1169q4 10 8.5 15t7.5 2q8 -7 -7.5 -34t-16.5 -15q-1 8 8 32zM1123 1556q17 11 81 11q41 0 52 -5t8 -22
q-16 -88 -79 -329t-71 -244q-12 -5 -3 -19q4 -6 -5.5 -48t-26.5 -95q-27 -84 -31 -115.5t7 -62.5q17 -48 8 -72q-11 -28 10 -57.5t49 -25.5q18 2 40.5 33t60.5 107l139 271q30 56 69.5 148.5t64.5 167.5q42 125 66.5 192t44 109.5t32 54.5t27.5 12t35.5 -8t34.5 -20l36 -29
l-34 -193l-79 -457q-51 -301 -71.5 -384t-66.5 -184q-47 -103 -97.5 -256t-50.5 -193q0 -20 -11.5 -27.5t-50.5 -11.5q-40 -3 -53 3q-25 11 -80 89q-21 29 -105 152q-43 64 -79 127t-43 86q-19 71 -67 71.5t-101 -69.5q-30 -39 -77.5 -169.5t-63.5 -217.5l-11 -58l-105 9
q-105 10 -169 27l-64 16l-76 229q-83 248 -119 385.5t-50.5 256t-16.5 300.5q-4 111 -0.5 173t9.5 84t25 57q62 111 78 50q4 -17 0 -21.5t-20 -0.5q-37 9 -37 -30q1 -60 107 -329l153 -389q48 -123 103.5 -227t73.5 -104q22 0 22 29.5t-22 79.5q-23 55 -21 70.5t30 15.5
q23 0 26.5 -9.5t-3.5 -51.5q-5 -36 -2.5 -50t17.5 -20q16 -6 22 -2q17 11 81 151q21 46 117 260q163 366 229 550q76 210 104 229zM1123 1165q4 61 5 93t0 52.5t-5 26t-12 5.5q-13 0 -16.5 -14.5t0.5 -57.5q6 -71 6.5 -182.5t6 -105.5t15.5 183z" />
    <glyph glyph-name="X" unicode="X" horiz-adv-x="1900" 
d="M1322 665q-9 15 6 15t24.5 -15t-6 -15t-24.5 15zM1512 1516q21 23 38 29.5t43 1.5q108 -19 161.5 -34.5t78.5 -36t33 -55.5q12 -49 -14 -86t-114 -97q-96 -64 -261.5 -214t-219.5 -221q-40 -52 -81.5 -129.5t-41.5 -99.5q0 -18 27 -6q18 8 30 10t32.5 -6t39.5 -21.5
t57 -48t78.5 -74.5t110.5 -111l259 -262l-6 -207q-3 -109 -6.5 -148.5t-11 -58.5t-27.5 -40l-40 -39l-27 50q-23 41 -210.5 262.5t-341.5 388.5q-189 206 -246 206q-7 0 -38.5 -25.5t-70.5 -60.5q-96 -89 -193.5 -232t-241.5 -404q-10 -19 -56 -21t-95.5 9t-88.5 32t-38 42
q1 9 49.5 81.5t116.5 164.5q180 246 309 443q26 39 27 63q1 23 -54.5 142t-74.5 134q-14 12 -74.5 111t-125.5 216q-46 85 -49 166.5t39 123.5q15 16 32 27t25 11t54.5 -65.5t103.5 -157.5q117 -188 175.5 -275.5t91 -122.5t56.5 -38q18 -2 30 -9.5t12 -17.5q0 -45 52 -23
q27 12 63 42q28 23 83 84t104 123q216 274 288 359t89 85q10 1 27.5 12.5t32.5 27.5z" />
    <glyph glyph-name="Y" unicode="Y" horiz-adv-x="1555" 
d="M529 344q-8 28 4 26q15 -1 39 -42q18 -31 17 -61t-21 -30q-5 0 -11 12t-10 29q-10 41 -18 66zM796 867q19 12 30 11t11 -13q0 -16 -16 -23.5t-30 1.5q-16 11 5 24zM1121 1343q15 28 34 30q11 2 11 -12q0 -12 -18.5 -30t-30.5 -18q-11 0 2 27q1 1 2 3zM456 1358
q-4 6 -2 10.5t9 4.5t11.5 -4.5t4.5 -10.5q0 -15 -7 -15t-16 15zM133 1389q52 15 132.5 12t99.5 -21q22 -22 86 -139q60 -110 154.5 -255t121.5 -168q11 -10 33.5 -20.5t41.5 -14.5q34 -7 51.5 5t68.5 77l132 162q60 69 170 208q74 93 100 115.5t59 22.5q20 0 44 -7.5
t37 -18.5q21 -17 40.5 -70t20.5 -96q0 -8 -36 -49.5t-88 -93.5q-99 -99 -236 -274.5t-177 -254.5q-34 -66 -25 -100.5t-16 -44.5q-16 -6 -18.5 -41.5t3.5 -172.5q10 -205 19 -236q6 -20 -1.5 -27.5t-37.5 -14.5q-48 -9 -126 -9h-79l-9 273q-9 272 -21 316q-12 40 -33 50
q-15 5 -16 -17q0 -10 -3.5 -17t-8.5 -7q-9 0 -89.5 117t-95.5 152q-9 22 -160 255t-195 294l-46 62l33 18q33 18 70 30z" />
    <glyph glyph-name="Z" unicode="Z" horiz-adv-x="1516" 
d="M575 936q5 22 19.5 27.5t65.5 4.5l77 -2l-79 -37q-80 -38 -86 -32t3 39zM86 990q0 21 38.5 24t66.5 -15q18 -12 3 -14q-6 -1 -20 -1q-40 0 -64 -9t-24 15zM57 1294.5q0 48.5 22 48.5q9 0 15.5 -9t6.5 -21t7 -21t16 -9t15.5 5t6.5 12t11.5 9.5t51.5 0t102.5 -8.5
t178.5 -20q127 -14 374 -21t415 -16l168 -9v-131v-132l-103 -83q-103 -83 -253 -180q-123 -80 -270 -198.5t-165 -152.5q-16 -30 -16 -62q0 -13 -6.5 -24.5t-16.5 -14.5q-9 -4 -15.5 -12t-6.5 -15q0 -9 -20.5 -17t-54.5 -12q-75 -11 -97 -19q-13 -5 -19 -21t-2 -30.5
t16 -15.5q40 -3 166 2t220 14q142 14 412 23l270 9l-2 -120q-2 -79 -8.5 -106t-28.5 -52q-32 -34 -70 -35t-127 29q-83 28 -261 33t-524 -10q-92 -4 -146.5 -5.5t-103 0t-72.5 5.5t-45 14t-30.5 22.5t-20.5 33.5q-23 45 -14 121q7 52 20 73.5t60 59.5q30 24 92.5 62
t121.5 69q104 53 247 158t258.5 211t145.5 162q11 21 26.5 37.5t26.5 19.5q26 6 40 41.5t0 60.5q-14 26 -45 33.5t-60 -8.5q-19 -10 -27.5 -10t-11.5 10q-16 47 -138 57.5t-321 -18.5q-150 -22 -271 -22h-121l-10 78q-9 79 -9 127.5z" />
    <glyph glyph-name="bracketleft" unicode="[" 
 />
    <glyph glyph-name="backslash" unicode="\" horiz-adv-x="130" 
 />
    <glyph glyph-name="bracketright" unicode="]" 
 />
    <glyph glyph-name="asciicircum" unicode="^" horiz-adv-x="870" 
d="M441 1537q0 15 15 15t15 -15t-15 -15t-15 15zM532 1545q-15 15 0 18.5t90 3.5q79 0 113.5 -11.5t34.5 -37.5q0 -7 -22 -8.5t-54.5 1t-66.5 7.5t-61 12.5t-34 14.5zM59 1552q4 6 46 10.5t97 4.5q134 0 134 -15t-143 -15t-134 15z" />
    <glyph glyph-name="underscore" unicode="_" 
 />
    <glyph glyph-name="grave" unicode="`" 
 />
    <glyph glyph-name="a" unicode="a" horiz-adv-x="886" 
d="M35 1296l5 264l327 -1q326 -1 407 -13l82 -12l-9 -183q-9 -182 -17 -220q-8 -45 -30.5 -344.5t-29.5 -460.5q-9 -195 -18 -335l-9 -139l-63 7q-62 7 -75 8q-11 0 1 17l3 3q17 21 17.5 325.5t-16.5 325.5q-18 21 -119 21q-42 0 -93.5 7t-81.5 16q-53 16 -67 15t-32 -23
q-25 -30 -34.5 -185t2.5 -338q12 -185 4 -199q-7 -11 -71 -8t-77 16q-8 8 -10.5 569t4.5 867zM587 1373q-8 7 -57 13t-109 7q-32 1 -51 1t-40.5 -1t-32.5 -2.5t-23.5 -6t-17.5 -9t-10.5 -14.5t-6.5 -18.5t-1.5 -25.5t1 -32t4.5 -40q11 -107 20 -234l9 -128l68 -20
q67 -19 110 -41q91 -46 147 10q20 20 23.5 41.5t-3.5 88.5q-11 101 -10 248t-20 163z" />
    <glyph glyph-name="b" unicode="b" horiz-adv-x="1401" 
d="M334 1138q-3 16 -1.5 27t6.5 11t9 -9t4 -21t4.5 -21t11.5 -9q6 0 8 -4.5t-2 -10.5q-14 -24 -29 3q-7 12 -11 34zM1152 1188q23 -8 24 -26q1 -16 -18 -16q-10 0 -17 7t-7 17t5.5 15.5t12.5 2.5zM31 1436q8 15 99 9.5t223 -29.5q113 -20 189.5 -23.5t253.5 2.5
q180 6 250 2.5t169 -24.5q148 -31 154 -31q3 -9 1 -65t-7.5 -144t-11.5 -148q-6 -55 -18 -68q-17 -20 -95 -28q-24 -3 -90 -8q-102 -8 -153.5 -26.5t-70.5 -54.5q-15 -29 2 -61t57 -53t87 -21q51 0 162.5 -26.5t115.5 -40.5q4 -16 -3 -284q-6 -201 -17 -244q-11 -47 -47 -60
q-19 -8 -85 -15q-84 -9 -190 -26q-64 -10 -331 -14t-550 1l-54 2l-12 297q-13 368 -22.5 770t-5.5 411zM1164 1217q0 14 -436 15.5t-445 -12.5q-6 -11 3 -142l10 -132l137 8q290 18 536 59.5t283 78.5q15 14 15.5 44.5t-11.5 57.5t-30 32q-11 3 -25 0t-20 -9q-17 -17 -17 0z
M517 520q-38 8 -62.5 13t-50.5 7.5t-41 3t-30.5 -4.5t-23 -11.5t-15 -21.5t-10 -29.5t-4.5 -41.5t-1.5 -52.5t1.5 -65.5l4 -171l218 -14q219 -14 354 4.5t256 32.5q136 17 136 38q0 10 -22 24q-21 13 -26.5 36t-5.5 98q0 121 -17 128q-7 2 -19 -7q-18 -14 -280 0t-361 34z
" />
    <glyph glyph-name="c" unicode="c" horiz-adv-x="1308" 
d="M411 409l-8 37l26 -40q11 -17 27.5 -33.5t29.5 -22.5q19 -9 18 -12q0 -3 -36 -4q-49 0 -49 18.5t-8 56.5zM216 1293l42 95l92 -12q92 -12 455 -11l364 1l8 -46q8 -46 18 -114l10 -68l-371 -3q-371 -3 -393 -20q-9 -7 -29 -57t-40 -113q-34 -108 -40.5 -164t-5.5 -222
q2 -233 23 -293q14 -42 26.5 -51t52.5 -10q59 -1 194.5 -37t240.5 -33t260 -6q49 -2 76 -4.5t48 -8.5t27 -13t3 -21t-14 -30t-32 -43q-46 -58 -66 -73q-41 -29 -142 -34q-66 -2 -340 3q-373 7 -450 11t-93 14q-21 14 -45 128t-43 291q-22 199 -22 280.5t21 202.5
q15 90 32 144t65 162z" />
    <glyph glyph-name="d" unicode="d" horiz-adv-x="1530" 
d="M847 38q23 -8 23 -14t-23 -6q-9 0 -15.5 4t-6.5 10t6.5 7.5t15.5 -1.5zM971 52q-12 5 5 7q6 1 14 1q25 0 24 -5q-1 -1 -5 -3q-19 -7 -38 0zM1162 792q0 104 3 95q1 -2 2 -15q5 -71 0 -150q-3 -40 -4 -4q-1 24 -1 74zM240 1415q119 14 179 14.5t103 -12.5q64 -18 192 -34
t276 -24q134 -7 178.5 -17t130.5 -53q5 -3 16 -8q81 -41 106 -65q42 -42 54 -145q11 -85 16 -425q1 -36 1 -55l8 -516l-71 -77q-53 -57 -167.5 -138t-156.5 -91q-32 -7 -303 -22t-338 -22q-56 -6 -112.5 8t-87.5 41q-11 9 -31 16.5t-37 9.5q-54 4 -68 9.5t-26 29.5
q-7 12 -13.5 70t-9.5 128q-6 169 -15.5 312t-14.5 511.5t-15.5 395.5t7 63.5t51.5 58.5q15 10 58 20.5t90 16.5zM689 1184q-241 30 -351 20q-40 -3 -31 -13q17 -16 9 -456q-6 -381 3 -526.5t41 -172.5q35 -31 28 -62.5t-54 -46.5q-53 -17 -48 -32q6 -20 111 -16
q132 6 461 62.5t398 86.5q41 16 60 39t27 62.5t7 113.5q0 152 -33 248q-19 55 -33 30q-8 -16 -11 -63q-1 -21 -3 3q-2 43 -3 181q-2 218 -19 312t-55 94q-16 0 -24 -9.5t-10 -30.5q-5 -43 -20 -41q-11 1 -19 24q-4 10 1 22.5t16 21.5q18 13 18.5 20t-15.5 23q-10 9 -41 20
t-64 16q-82 14 -127.5 31.5t-218.5 38.5z" />
    <glyph glyph-name="e" unicode="e" horiz-adv-x="1450" 
d="M565 346q-3 8 2 10.5t16 -1.5q10 -4 17 -11t7 -13q0 -15 -18 -8.5t-24 23.5zM488 352l1 64l22 -51q33 -77 -10 -77q-6 0 -10 19t-3 45zM562 414q0 8 15.5 14.5t40.5 8.5q46 3 46 -2t-54 -23q-28 -10 -38 -9.5t-10 11.5zM457 921q0 41 13 38q1 0 2 -1q6 -4 10.5 -17.5
t4.5 -28.5t-4.5 -26t-10.5 -11t-10.5 13.5t-4.5 32.5zM445 1021q-3 10 10.5 15t46.5 5q52 0 52 -9q0 -5 -9 -15q-16 -21 -54.5 -19t-45.5 23zM85 1329q80 37 76 3q0 -2 -1 -4q-2 -9 11 -10q28 -5 406 24q233 17 422.5 10t242.5 -35q50 -27 63 -27q13 -1 26 -44.5t4 -57.5
q-3 -5 -53 -8.5t-116 -3.5q-155 0 -446.5 -31.5t-324.5 -52.5q-18 -11 -7 -140q1 -20 3 -53q2 -26 2.5 -38t4.5 -30t4.5 -24t9.5 -17t12.5 -13.5t20.5 -7.5t26 -5t36 -1.5t44.5 -0.5t57.5 1q49 1 78 2q274 3 439 19q165 15 188 13q26 -3 30 -24q1 -5 1 -48v-75h-133
q-54 0 -119 -7t-101 -17q-88 -23 -296.5 -45t-244.5 -45q-23 -15 -28 -34q-7 -30 9 -201q1 -10 2 -23q5 -52 1.5 -66.5t-23.5 -20.5q-13 -4 -21.5 -15.5t-8.5 -24.5q0 -15 13 -20q31 -10 307 -8q56 1 184 2l504 6v-101q0 -42 4 -74.5t11 -35.5q21 -13 13 -40.5t-36 -40.5
q-36 -16 -201.5 -32.5t-272.5 -13.5q-113 2 -161.5 -8.5t-93.5 7.5q-26 11 -46 10.5t-51.5 -12t-52.5 -12t-49 10.5q-32 12 -46 9.5t-35 -23.5q-33 -31 -91 -31q-42 0 -61.5 14.5t-78.5 87.5q-13 17 -37.5 167.5t-46.5 350.5q-36 320 -26 782l4 159z" />
    <glyph glyph-name="f" unicode="f" horiz-adv-x="1260" 
d="M537 561q0 17 5.5 22t18.5 0q24 -9 42 -9q14 -1 -13 -23q-26 -22 -41 -22q-12 0 -12 32zM507 1033q0 49 6.5 58.5t38.5 9.5h45l-25 -39q-16 -24 -17.5 -37.5t9.5 -30.5q12 -19 8.5 -24t-27.5 -5q-26 0 -32 11t-6 57zM913 1407q53 9 108 13.5t80 1.5q77 -9 107 -53
t-1 -103l-23 -45h-161q-249 0 -401 -8t-169 -23q-14 -11 -17.5 -48t-0.5 -137q3 -109 8.5 -139t22.5 -33q26 -4 41 34q9 23 19 29t31 2q133 -26 443 -23q156 1 188 -7q35 -9 40 -42q4 -18 -2 -88l-4 -66l-324 -8q-127 -3 -202.5 -7t-123 -12t-64 -19t-16.5 -29
q0 -11 -7 -16.5t-19 -3.5q-32 6 -53.5 -55.5t-31 -186.5t-6.5 -307q4 -266 -11 -267q-36 -3 -137.5 1.5t-122.5 9.5q-22 5 -27.5 21.5t-5.5 79.5q0 92 -24 367q-17 190 -17 261.5t17 204.5q25 192 42 429l18 237l61 16q56 15 99 16t270 -9q141 -5 222 -2.5t154 14.5z" />
    <glyph glyph-name="g" unicode="g" horiz-adv-x="1386" 
d="M846 296q15 -9 15 -31q0 -9 -4.5 -15.5t-10.5 -6.5t-10.5 9.5t-4.5 22t4.5 19t10.5 2.5zM545 337q0 79 13 79q14 -1 20 -93q5 -80 -14 -80t-19 94zM701 913q8 22 33 13q17 -7 17 -12.5t-16 -21.5q-20 -20 -32 -12.5t-2 33.5zM763 1114q-23 10 2 12q10 1 32 2
q26 1 47.5 -3t24.5 -9q5 -8 -10 -11q-36 -9 -85 6q-6 1 -11 3zM261 1438q134 34 267 36t345 -27q355 -48 401 -62q23 -8 34 -22q19 -26 19.5 -97.5t-18.5 -83.5q-8 -5 -64.5 -7t-127.5 0q-173 6 -451 7l-277 2l-13 -46q-13 -42 -16 -478.5t9 -470.5q7 -19 3 -28t-22 -15
q-12 -4 -21 -13.5t-9 -18.5q0 -13 7.5 -15t26.5 5q37 13 308 7t300 -21q13 -7 30.5 -9t28.5 2q16 6 19 41q4 40 -2 225l-8 255h149h150l-3 -331q-2 -191 1.5 -266t15.5 -89q26 -31 0 -53t-98 -30q-87 -10 -505 -8l-417 3l-16 -43q-6 -15 -9.5 -21t-8.5 -11.5t-17.5 -5.5
t-25 1t-42.5 4q-88 11 -98 17q-15 9 -23 91.5t-6 195.5q1 63 -5.5 174t-17.5 202q-21 188 -23.5 486t17.5 372q12 44 31.5 67.5t59 40.5t122.5 38z" />
    <glyph glyph-name="h" unicode="h" horiz-adv-x="1620" 
d="M1005 305q0 6 14 9.5t35 3.5l49 -1l-38 -21q-28 -15 -44 -13t-16 22zM485 349q22 0 31 -15q4 -6 -2.5 -10.5t-19 -4.5t-22 4.5t-9.5 10.5t6.5 10.5t15.5 4.5zM421 1327q0 33 4 32q1 -1 3 -6q7 -26 0 -53q-4 -15 -6 5q-1 9 -1 22zM328 1385q2 1 3 -36t1 -100t-1 -137
l-5 -274l39 -53q38 -53 47 -79q5 -15 17.5 -19t38.5 -1q109 16 175 20.5t189 3.5q119 0 155.5 5t57.5 23q21 20 29.5 20.5t25.5 -16.5q15 -14 25.5 -16t25.5 7q24 16 36.5 102t18.5 288l6 196l107 4q83 4 107 -8q35 -18 46 -93q9 -58 16 -278q10 -302 27 -400
q20 -117 43.5 -279.5t29.5 -221.5q8 -85 -30.5 -122.5t-155.5 -58.5l-47 -8l-18 274q-18 273 -32 308q-14 37 -43.5 43t-95.5 -14q-109 -33 -329 -33.5t-384 31.5q-48 9 -79.5 -20t-23.5 -75q8 -42 22 -253q12 -174 2 -205q-8 -26 -39 -22q-8 1 -22 4q-53 12 -115 34t-76 33
q-18 14 -20 6q0 -10 -21 6q-18 15 -30.5 259t-16.5 665l-4 388l37 24q37 24 145 50.5t116 27.5z" />
    <glyph glyph-name="i" unicode="i" horiz-adv-x="335" 
d="M39 1239l-9 193h138h137l-9 -65q-20 -138 -27 -370t4 -420q7 -109 8.5 -230.5t-2.5 -182.5l-10 -146h-104h-103l-2 243q-4 637 -21 978z" />
    <glyph glyph-name="j" unicode="j" horiz-adv-x="1061" 
d="M674 1496q33 7 189.5 -0.5t165.5 -15.5q4 -5 1 -74t-12 -162q-22 -226 -49 -678l-26 -452l-88 -108l-88 -107l-92 -10q-91 -10 -267 -4q-112 3 -151.5 9.5t-65.5 26.5q-41 31 -52 53q-20 40 -55.5 182t-43.5 212l-10 103l44 -18q18 -7 71.5 -12.5t110.5 -6.5l140 -1
l-2 -72q-2 -66 21.5 -107t62.5 -41q15 0 28.5 4.5t17 10.5t18 7.5t31.5 -1.5q42 -9 76.5 21t48.5 86q14 63 23 216t-1 189q-4 17 -17.5 33.5t-28.5 23.5l-36 17l3 335q2 282 11 317q5 20 19 24h3z" />
    <glyph glyph-name="k" unicode="k" horiz-adv-x="1516" 
d="M1003 665q-15 0 -6 15t24 15t6 -15t-24 -15zM373 838q0 19 5 25.5t17 1.5q13 -4 14.5 -12.5t-7.5 -23.5q-11 -20 -17 -25.5t-9 3t-3 31.5zM1429 962q18 18 30 17.5t12 -20.5q0 -8 -9 -16.5t-21 -11.5q-25 -7 -28.5 2.5t16.5 28.5zM236 1527l51 -9l-10 -235
q-9 -210 -9 -244t10 -156l12 -136h49q22 0 37 2t44 18t56 35.5t88.5 69.5t124.5 104.5t178 154.5q128 111 216.5 177.5t206.5 138.5l127 78l34 -40q22 -25 28.5 -53t6.5 -99v-112l-110 -53q-215 -103 -430 -332q-79 -83 -105 -102.5t-50 -11.5q-45 16 -72 1.5t-26 -50
t29 -85.5q27 -46 247 -294.5t341 -370.5l87 -87l-125 9q-125 10 -165.5 14t-172.5 132q-117 112 -294 267.5t-216 179.5q-26 16 -35 15.5t-23 -19.5q-8 -10 -23 -17t-26 -5q-16 2 -21 -15q-8 -31 7 -304q1 -26 3 -65q8 -148 0 -166q-4 -10 -19 -10q-29 0 -61 22.5t-42 7.5
q-3 -6 -14.5 -10.5t-22.5 -4.5q-17 0 -25.5 11t-14 39.5t-11.5 92.5q-6 75 -31 256q-21 161 -23.5 382.5t15.5 389.5q10 90 10 145t-10 106q-24 131 -26.5 162.5t12.5 49.5q20 24 50.5 37t60.5 5.5t82 -16.5z" />
    <glyph glyph-name="l" unicode="l" horiz-adv-x="1423" 
d="M604 319q9 15 30 15t30 -15q5 -10 -13 -14q-7 -1 -17 -1q-32 0 -32 11zM425 436q11 56 16 43q5 -9 5 -58q0 -63 -15 -48q-7 6 -8.5 24.5t2.5 38.5zM424 982q14 23 18 -2q4 -21 4 -93q-1 -105 -9 -98q-9 10 -14.5 95.5t1.5 97.5zM157 1339l101 10l18 -323q19 -324 37 -497
q25 -253 81 -240q14 4 29 25q13 17 17 17t11 -18q10 -26 -16 -34q-53 -15 -77.5 -34.5t-24.5 -46.5v-37h301q301 1 530 14l229 13v-82q0 -183 -43 -202q-24 -11 -370 -22.5t-519 -29.5q-141 -15 -268 -15.5t-141 12.5q-14 15 -20.5 738.5t7.5 731.5q17 11 118 20zM441 1362
q21 20 26 -11t-2 -142q-10 -184 -23 -181q-11 3 -11 150q0 174 10 184z" />
    <glyph glyph-name="m" unicode="m" horiz-adv-x="1687" 
d="M503 -139q-4 9 -4 21.5t4 21t10.5 8.5t11 -8.5t4.5 -21t-4.5 -21.5t-11 -9t-10.5 9zM1021 298q33 67 44 63q2 0 3 -3q4 -21 -28.5 -83t-47.5 -62q-11 0 26 78q2 3 3 7zM328 316q10 81 23 83q14 -8 11 -69t-21 -147l-20 -98l-1 70q-2 69 8 161zM1199 621q10 19 20.5 29.5
t17 6.5t3 -16.5t-15.5 -28.5q-30 -41 -38 -34q-7 6 13 43zM333 755q0 12 4 21t10 9q12 0 20.5 -21t0.5 -30q-14 -14 -24.5 -8t-10.5 29zM1516 1400q24 3 51 -270t39 -631q10 -338 12 -372q0 -14 4.5 -24t9 -10t11.5 -10t12 -23q9 -24 -15 -84t-60 -103q-19 -24 -68.5 -20
t-74.5 31q-17 19 -21 70q-7 71 -4 499q3 334 -0.5 441.5t-16.5 125.5q-22 28 -49 13.5t-42 -62.5q-21 -68 -93 -206.5t-149 -257.5q-106 -166 -148 -249q-23 -45 -36.5 -68t-25.5 -34t-20 -8.5t-20 16.5q-23 27 -125.5 230t-149.5 278l-110 173q-45 70 -106 129.5t-74 46.5
q-3 -4 1 -17t14 -27q15 -23 17.5 -123t-2.5 -451l-9 -539l-54 10q-146 26 -157 65q-8 25 -18 430t-9 660q0 134 2.5 185t8 73.5t21.5 38.5l30 31l87 -58q86 -58 292 -159q84 -42 173.5 -93t129.5 -81l98 -73l88 72q37 29 98.5 94t112.5 127q122 150 143.5 168t103 31.5
t98.5 14.5zM438 1311q-77 71 -77 87q0 3 3 3q10 0 43 -26t69 -64q86 -86 71.5 -86.5t-109.5 86.5z" />
    <glyph glyph-name="n" unicode="n" horiz-adv-x="1513" 
d="M465 -125q-1 43 4 39q1 -1 2 -5q7 -27 1 -61q-4 -20 -6 3q-1 9 -1 24zM876 105q-70 142 -57 131q16 -16 78.5 -141t57.5 -130q-2 -2 -13 16.5t-28.5 51.5t-37.5 72zM408 917q-4 18 -1 19q5 0 30 -46q51 -91 36 -100q-4 -2 -12 3q-14 8 -29 43t-24 81zM903 1069
q7 0 16 -22q6 -17 -1 -16q-2 0 -5 2q-15 9 -15 22.5t5 13.5zM1068 1296q0 75 3 70q1 -2 3 -13q6 -57 0 -113q-4 -29 -5 2q-1 19 -1 54zM893 1372q-3 12 -1.5 21t7.5 9t10 -9t4 -21q0 -30 -6 -30t-14 30zM145 1392q17 7 65 12t99 5h122l57 -90q56 -90 163 -227t164 -233
q62 -106 104 -169t99 -137q68 -87 106 -156q29 -53 57 -78t42 -11q10 11 16 125t-17 161q-16 32 -47 287.5t-40 432.5l-4 86l79 10q73 9 119.5 -8t61.5 -57q13 -36 24 -264t30 -868q3 -87 10 -158.5t16 -92.5q33 -81 -27 -118t-225 -37h-121l-43 102q-62 148 -130.5 272
t-196.5 320q-172 263 -231 370q-33 61 -51 83t-32 17q-25 -7 -30 26t-23.5 38.5t-32.5 -21.5q-17 -32 -33.5 -269t-23.5 -554q-7 -283 -18 -337q-10 -50 -38 -58q-13 -4 -47 -4q-31 0 -48.5 6t-32 26t-22.5 51.5t-18 89.5q-24 135 -13 323q12 217 29 693q5 139 12.5 246.5
t13.5 119t22.5 25t33.5 20.5z" />
    <glyph glyph-name="o" unicode="o" horiz-adv-x="1343" 
d="M902 -8q32 41 32 20q0 -6 -26 -27q-18 -13 -19 -12t13 19zM947 52q20 26 26 26q21 0 -20 -32q-18 -14 -19 -13t13 19zM402 221q-7 43 -5 44t8 -13q1 -3 4 -9q16 -37 26.5 -82.5t43.5 -49.5q14 -2 24 -8t10 -12q0 -7 -7 -9t-17 2q-25 9 -38 9t-26.5 34.5t-22.5 93.5z
M364 475q-1 22 5 21q1 0 2 -1q9 -9 2 -29q-7 -17 -9 4v5zM731 1056q-4 6 -2 10.5t8.5 4.5t11 -4.5t4.5 -10.5q0 -15 -6.5 -15t-15.5 15zM309 1031q-8 52 6 52q2 0 5 -1q8 -3 16.5 -24.5t12.5 -48.5q5 -31 9.5 -91.5t8.5 -126.5t6 -126.5t1.5 -98.5t-3.5 -35q-10 10 -32 226
t-30 274zM916 1490l200 -4l89 -89l90 -89v-513q0 -514 9 -664l9 -151l-85 -115l-85 -115l-251 7q-252 8 -447 19q-124 7 -163 5t-51 -16q-16 -20 -26 -12q-12 12 -53 134q-52 157 -86.5 491t-35.5 687q0 144 5.5 199.5t25.5 109.5l30 83l185 9q184 9 229 23t128 9.5
t283 -8.5zM1036 1256q-12 16 -43 22.5t-112 9.5q-135 5 -180 -1t-203 -21.5t-204 -29.5l-46 -15l3 -266q2 -196 29 -478t53 -374q6 -23 18.5 -42.5t22.5 -22.5q26 -8 146 -66q104 -49 214 -73.5t195 -17.5q37 3 96 103q62 104 74 174q6 40 -15 40q-6 0 -11 -5.5t-5 -13.5
q-1 -8 -5 5q-4 12 -8 34q-5 23 -6.5 180.5t1.5 353.5q3 282 0.5 385t-14.5 119z" />
    <glyph glyph-name="p" unicode="p" horiz-adv-x="1521" 
d="M596 740q21 0 30 -15q4 -6 -2.5 -10.5t-19 -4.5t-21.5 4.5t-9 10.5t6.5 10.5t15.5 4.5zM468 726q0 40 7.5 41t44.5 -33l39 -36l-45 -7q-31 -5 -38.5 1t-7.5 34zM1059 775q-16 4 5 6q8 1 21 1q34 0 33 -4q-1 -1 -6 -3q-27 -7 -53 0zM483 890q16 0 16 -6.5t-16 -15.5
q-6 -4 -10.5 -2t-4.5 8.5t4.5 11t10.5 4.5zM546 1014q110 6 145 9q29 2 27 -9q0 -1 -1 -3q-3 -6 -36 -13t-77 -11.5t-74.5 -11t-30.5 -12.5q0 -5 -7 -9t-16 -4q-23 0 -23 6t-9 30q-1 7 0 11.5t14 8t32.5 5.5t55.5 3zM882 1026q-18 9 9 10q20 0 66 -3q106 -7 154.5 -7
t48.5 -22q0 -13 -9.5 -14.5t-38.5 6.5q-49 15 -124.5 15.5t-105.5 14.5zM499 -31q1 66 8 65q2 0 6 -9q9 -20 12.5 -54.5t0 -61.5t-11.5 -27q-7 0 -11 25.5t-4 61.5zM1091 122q22 1 21 -6q0 -1 -1 -2q-9 -9 -28.5 -1.5t8.5 9.5zM485 99q-1 22 5 21q1 0 3 -2q9 -9 1 -28
q-7 -17 -9 3v6zM468 337q0 16 10.5 21t38.5 5q38 -1 39 -5q0 -3 -24 -19q-13 -9 -23 -23.5t-10 -24.5q0 -16 -3 -16.5t-13 13.5q-15 23 -15 49zM1409 386q70 23 78 18q4 -2 4 -18q0 -13 -15 -17.5t-56 -3.5l-71 2zM1415 1244q-27 29 -18 36q11 8 42 -23q25 -25 23 -44
q-1 -7 -7 -7q-4 0 -40 38zM98 1272q19 10 39.5 14.5t30.5 0.5q34 -15 519 -53q225 -17 419 -1l194 17l88 -78l87 -79l1 -143q2 -142 9 -282q4 -57 2.5 -98t-6.5 -42q-12 0 -290 -13q-244 -11 -432.5 -28.5t-252.5 -35.5q-60 -17 -90 -18q-18 -1 -23 -18q-8 -24 -12 -192
q-2 -86 1 -169t8 -113q9 -50 7 -62t-21 -12q-11 0 -19.5 -5.5t-9.5 -13.5q0 -7 -11 -20.5t-27 -25.5q-32 -23 -75 -19t-66 32q-20 24 -32.5 19t-25.5 -42q-11 -32 -26 -43t-24.5 4.5t-7.5 49.5q4 57 13 72q16 26 20 83t-6 105q-29 128 -43.5 551t4.5 564q7 45 17 62t41 32z
M1156 1067q-229 41 -507 10q-188 -21 -229 -14q-23 4 -32.5 1t-9.5 -16q0 -9 -6.5 -15.5t-15.5 -6.5q-14 0 -18.5 -23.5t-4.5 -95.5q0 -76 4.5 -135t12.5 -90.5t18 -28.5q6 2 14 15t12 27q6 24 8 26q2 1 3 -4q2 -6 5 -30q4 -30 15 -37q15 -11 119 -25l1 -1h1h1h1h1h1h1l1 -1
h1h1h1h1h1h2q113 -16 234 -12t187 25q69 22 132 30t89 -2q36 -14 82 5t59 53q15 38 -2 118.5t-53 144.5q-26 46 -44.5 58t-86.5 24zM517 1361q-17 5 3 7q6 1 16 1q32 0 30 -5q0 -1 -4 -3q-18 -7 -45 0z" />
    <glyph glyph-name="q" unicode="q" horiz-adv-x="1419" 
d="M554 409q0 24 4 23q1 0 3 -4q8 -19 0 -38q-5 -12 -7 5v14zM804 732q-2 -62 -7.5 -87.5t-16.5 -25.5q-9 0 -12.5 8t-1.5 19q7 26 17 112.5t17.5 86.5t3.5 -113zM731 974q0 33 11 31q1 0 3 -1q5 -4 7 -15t-2 -24q-8 -29 -13 -28q-6 1 -6 37zM614 981q0 24 4 23q2 -1 3 -5
q8 -18 0 -37q-5 -13 -7 5v14zM1007 913q1 87 4 81q1 -2 2 -18q5 -72 -1 -135q-3 -32 -4 4q-1 23 -1 68zM507 1017q-1 21 5 20q1 0 2 -1q9 -9 2 -28q-7 -18 -9 3v6zM376 1175q4 6 15 11t21 4q16 0 17 -3q0 -3 -16 -16q-2 -1 -4 -3q-33 -25 -38 -12q-3 5 5 19zM927 -58
q67 11 79 13q5 1 8 -2.5t3 -10.5q0 -6 -23 -9.5t-56 -2.5l-79 2zM168 1389l21 40l502 -1l502 -1l50 -91q51 -92 84 -137t44 -158q6 -67 11.5 -246t6.5 -309.5t-4 -151.5q-7 0 -36 18q-18 11 -30 9t-30 -19q-32 -29 -28.5 -75.5t44.5 -128.5l46 -93l-26 -59
q-15 -33 -28.5 -46t-33.5 -13q-22 0 -29 8t-7 32q0 44 -18.5 81.5t-47.5 57t-60.5 25.5t-60 -11.5t-42.5 -55.5q-11 -28 -30.5 -37.5t-92.5 -21.5q-105 -17 -274.5 -27.5t-280.5 -6.5q-72 2 -93.5 -1.5t-21.5 -17.5q0 -36 -35 -19.5t-77 71.5l-58 77l-3 491l-2 491l59 143
q58 143 79 183zM769 1208q-241 10 -327 21q-29 4 -41.5 5t-25 1.5t-17.5 -5t-8.5 -11t-8.5 -19.5q-16 -40 -16 -55q0 -6 -5 -10t-12 -4q-16 0 -7 -402q7 -336 11.5 -416.5t15.5 -91.5q10 -11 195 -23q41 -3 63.5 -4.5t50 -1.5t40.5 0.5t29.5 6t23 10t14.5 16.5t10 22t4.5 31
t2.5 38.5v48.5v20v34t2 25t3 19.5t8 13t11.5 10t19 6t24.5 6t34 4.5q13 2 20 3q44 7 76.5 35t23.5 51q-7 20 5 50q10 24 12 -6q1 -10 1 -27q1 -63 26 -88q19 -18 26.5 -16.5t28.5 26.5q14 17 18.5 39t6.5 91t-2 199q-5 281 -27 332q-13 31 -43 17q-11 -5 -89 -5.5t-177 4.5z
" />
    <glyph glyph-name="r" unicode="r" horiz-adv-x="1463" 
d="M609 967q0 43 4 73.5t10 30.5q14 0 23 -71t0 -111q-9 -41 -19 -38q-17 11 -18 116zM672 1128q-2 7 5.5 12.5t19.5 5.5q31 0 22 -23q-7 -19 -23.5 -17t-23.5 22zM982 1167q8 8 21 -1q12 -7 11.5 -36t-12.5 -29t-20.5 29t0.5 37zM406 1165q-12 3 4 4q18 3 56 3
q90 0 113 -14q15 -9 2 -8q-7 0 -22 4q-26 5 -36 0.5t-15 -23.5q-7 -24 -12 -24t-28 22q-32 29 -62 36zM1392 84q-1 11 19 -5q3 -2 6 -6q10 -10 14 -21t-1 -16t-14.5 1.5t-16.5 20.5t-7 26zM538 368q-19 4 -19 10.5t19.5 11t48 4.5t48 -4.5t19.5 -11t-19.5 -10.5t-48 -4
t-48.5 4zM356 391q-2 7 3 12.5t15.5 5.5t17 -7t6.5 -17q0 -19 -16 -18q-18 1 -26 24zM1316 431q-11 15 -9 19t23 4q13 0 22 -6.5t9 -16.5q0 -9 -4 -15.5t-9 -6.5q-14 0 -32 22zM1160 431q-18 27 -17 32.5t21 5.5q29 0 36 -38q2 -15 1 -26t-6 -11t-15 11t-20 26zM150 1385
q77 15 393 13.5t344 -16.5q29 -15 187.5 -18.5t184.5 10.5q15 8 29 3t36 -26l37 -38v-368v-368l-79 -12q-79 -12 -116.5 -14t-35.5 -26q2 -23 -7 -24q-9 0 -36 23q-19 18 -23 17t-4 -22.5t114 -211t187 -291.5q33 -45 36 -57.5t-15 -26.5q-11 -8 -46 -14t-75 -6h-94l-94 125
q-72 95 -201 228.5t-182 167.5q-23 15 -60.5 20t-121.5 4q-114 -1 -142 -10q-39 -14 -49 -64q-9 -40 -9 -212v-232l-120 6q-152 6 -150 42q0 8 8 16q15 15 0 131q-14 101 -16 395t7 553.5t24 274.5q14 13 89 28zM1057 1228q-8 8 -343 12.5t-359 -2.5q-38 -11 -43 -33
q-4 -15 14 -22q12 -4 17 -63t7 -218q5 -275 8.5 -278t153.5 17.5t255 29.5q107 10 198 35.5t122 53.5q30 27 32 40t-19 34q-20 19 -29 204.5t-14 189.5z" />
    <glyph glyph-name="s" unicode="s" horiz-adv-x="1569" 
d="M569 374q9 31 18 18q10 -15 6 -58q-3 -26 -9.5 -43.5t-14.5 -17.5q-13 0 -13 29.5t13 71.5zM1156 469q14 0 16.5 -10t-3.5 -40q-10 -47 -18.5 -52t-49.5 11q-36 15 -36 22q-1 4 16 13q28 15 40 35.5t35 20.5zM1177 544q0 7 6.5 11t16.5 4t14 -4t0 -11q-9 -15 -23 -15
t-14 15zM955 549q-17 5 2 7h17q31 0 30 -5q0 -1 -4 -2q-19 -8 -45 0zM1263 985q-12 5 5 7q6 1 14 1q25 0 23 -5q0 -1 -4 -3q-19 -7 -38 0zM1083 992l-64 16l82 1q68 1 69 -8q0 -3 -5 -8q-17 -17 -82 -1zM1094 1459q149 2 202 -3t111 -26q73 -27 115 -73q31 -32 7 -41
q-15 -5 -9 -140l6 -135h-66q-129 0 -197 19q-19 7 -18 12q8 14 -1 82q-6 38 -14 52.5t-24 14.5q-11 0 -22.5 5t-15.5 12q-8 13 -312 8.5t-352 -19.5q-38 -11 -69.5 -85t-32.5 -154q0 -30 1 -43.5t2 -25.5t6.5 -16t12 -6t19.5 -4q17 -2 29.5 0.5t12.5 7.5t256 7t514.5 -1.5
t264.5 -8.5q7 -7 4 -386t-10 -430q-9 -64 9 -87q15 -18 11 -24t-64 -27q-25 -9 -60 -29t-60 -39q-35 -27 -40 -29q-31 -16 -157 -14q-52 0 -398 9q-91 3 -141 4.5t-113.5 4t-92.5 4t-70.5 5.5t-57 7t-42 10t-36 12t-28 15.5t-28.5 19.5t-28 24l-85 73l-2 168q-4 235 10 247
q4 4 46 -6q29 -8 30 -13q0 -4 -13 -11q-43 -24 -6 -33q40 -9 206 -9h227l-9 -34q-10 -34 -31 -67q-32 -50 -10 -71q29 -28 202 -47q38 -5 92 -10q114 -11 179.5 -10.5t142.5 11.5q36 5 55.5 8t44 9t35.5 8.5t25 11.5t18.5 14.5t10 20.5t5.5 25.5t-0.5 33.5t-2.5 41t-6 51
q-17 128 -18 195l-2 67l-392 1q-393 0 -468 3l-145 6q-49 3 -62 11t-25 42q-7 21 -27.5 50.5t-42.5 51.5l-55 52l10 112q14 157 25 229t28.5 114.5t53.5 85.5l58 71l226 -8q227 -9 324.5 2.5t323.5 14.5z" />
    <glyph glyph-name="t" unicode="t" horiz-adv-x="1539" 
d="M1485 823q1 8 4 -11q6 -40 14 -147q13 -187 -2 -218q-9 -19 -13 13q-3 26 -5 99q-6 217 2 264zM280 941l-30 40h55h56l-10 -64q-14 -84 -30 -93q-6 -3 -8 11q-1 8 -1 19q0 19 -9.5 44.5t-22.5 42.5zM507 973q0 9 6 13t16 0q9 -4 13.5 -10.5t1.5 -11.5
q-10 -16 -23.5 -12.5t-13.5 21.5zM760 1378q6 6 287.5 5.5t330.5 -7.5q33 -4 53 -11t35 -19.5t21.5 -35.5t9.5 -53.5t3 -80.5v-135l-102 -3q-101 -2 -187 2q-68 2 -133.5 -24.5t-83.5 -63.5q-13 -26 -15 -261t6 -484.5t22 -312.5q1 -5 -5 -8t-20.5 -4.5t-38.5 -1.5t-60 1
q-128 4 -130 7q-5 5 -42 709l-19 376l38 32q66 55 -19 117q-21 16 -43.5 21.5t-98.5 8t-222 -0.5q-275 -3 -305 6q-14 4 -11 16q7 26 16 80q18 102 115 103q105 1 350 10t248 12z" />
    <glyph glyph-name="u" unicode="u" horiz-adv-x="1570" 
d="M840 1515q1 48 12 46q9 -5 6 -52t-12 -47q-6 0 -6 53zM48 1530q10 14 16.5 20.5t26 11t44 5t81.5 0.5h143v-73q0 -41 -5.5 -59.5t-18.5 -23.5q-16 -6 -18.5 -27t3.5 -91q10 -109 -13.5 -273t-23.5 -310q0 -94 5.5 -126.5t24.5 -54.5q31 -34 31 -107q0 -45 7 -64t32 -39
q17 -13 37 -20t34 -4q32 7 266 17q93 4 147.5 6.5t103 7t71.5 8.5t41.5 11t26 15t13.5 22q8 17 22 31.5t26 18.5q16 5 26 20t18.5 44t14 86t9.5 133t8 198q13 376 23 498l9 122l84 9q55 7 77 2.5t53 -27.5l47 -36l-5 -652l-4 -653l-60 -51q-24 -21 -61.5 -61t-65.5 -76
q-46 -60 -64.5 -73t-51.5 -9q-88 10 -309.5 23t-319.5 14q-143 1 -203 25q-54 21 -107.5 21.5t-74.5 -20.5q-15 -15 -56 -10t-58 24q-24 26 -34.5 215.5t-15.5 676.5q-6 504 -16.5 560.5t14.5 94.5z" />
    <glyph glyph-name="v" unicode="v" horiz-adv-x="1544" 
d="M1486 533q17 56 21 56q7 -2 7 -16t-7 -35t-16 -33q-15 -20 -15 -14t10 42zM104 1514q20 9 55.5 14.5t66.5 4.5q54 -3 66.5 -11t27.5 -53q22 -60 50 -192q12 -54 28.5 -105.5t28.5 -67.5q27 -41 91 -218q69 -190 117 -290.5t91 -143.5t95 -43q31 0 68.5 37.5t37.5 67.5
q0 32 114 366t156 476q17 59 34 102t24 46q21 7 72.5 -13t72.5 -44q11 -12 22.5 -36.5t16.5 -48.5q8 -37 -4.5 -87t-70.5 -203q-88 -234 -129 -325q-35 -78 -79 -194t-70 -197q-45 -141 -58 -189t-20 -103l-11 -76l-170 -3q-171 -3 -219 -4q-19 0 -28.5 2t-22.5 16t-25 34.5
t-37 66.5q-123 232 -262 608l-63 170l8 232q5 140 3 186t-14 46t-14 -41t3 -166q8 -207 -1 -199q-21 19 -62.5 149.5t-52.5 212.5q-9 59 -10.5 92.5t6 58.5t23 38t45.5 27zM845 1554q18 30 20 -13q1 -9 1 -22q-1 -36 -3 -37t-8 14q-2 3 -4 9q-15 35 -6 49z" />
    <glyph glyph-name="w" unicode="w" horiz-adv-x="1802" 
d="M100 9q10 27 38 11t38 -56q10 -41 2.5 -44t-45.5 28q-43 35 -33 61zM357 899l-10 44l32 -49q13 -20 21.5 -46.5t8.5 -43.5l-2 -42l-20 47q-20 47 -30 90zM1337 1169q4 10 8.5 15t7.5 2q8 -7 -7.5 -34t-16.5 -15q-1 8 8 32zM1123 1556q17 11 81 11q41 0 52 -5t8 -22
q-16 -88 -79 -329t-71 -244q-12 -5 -3 -19q4 -6 -5.5 -48t-26.5 -95q-27 -84 -31 -115.5t7 -62.5q17 -48 8 -72q-11 -28 10 -57.5t49 -25.5q18 2 40.5 33t60.5 107l139 271q30 56 69.5 148.5t64.5 167.5q42 125 66.5 192t44 109.5t32 54.5t27.5 12t35.5 -8t34.5 -20l36 -29
l-34 -193l-79 -457q-51 -301 -71.5 -384t-66.5 -184q-47 -103 -97.5 -256t-50.5 -193q0 -20 -11.5 -27.5t-50.5 -11.5q-40 -3 -53 3q-25 11 -80 89q-21 29 -105 152q-43 64 -79 127t-43 86q-19 71 -67 71.5t-101 -69.5q-30 -39 -77.5 -169.5t-63.5 -217.5l-11 -58l-105 9
q-105 10 -169 27l-64 16l-76 229q-83 248 -119 385.5t-50.5 256t-16.5 300.5q-4 111 -0.5 173t9.5 84t25 57q62 111 78 50q4 -17 0 -21.5t-20 -0.5q-37 9 -37 -30q1 -60 107 -329l153 -389q48 -123 103.5 -227t73.5 -104q22 0 22 29.5t-22 79.5q-23 55 -21 70.5t30 15.5
q23 0 26.5 -9.5t-3.5 -51.5q-5 -36 -2.5 -50t17.5 -20q16 -6 22 -2q17 11 81 151q21 46 117 260q163 366 229 550q76 210 104 229zM1123 1165q4 61 5 93t0 52.5t-5 26t-12 5.5q-13 0 -16.5 -14.5t0.5 -57.5q6 -71 6.5 -182.5t6 -105.5t15.5 183z" />
    <glyph glyph-name="x" unicode="x" horiz-adv-x="1900" 
d="M1346 650q-15 0 -24 15t6 15t24.5 -15t-6.5 -15zM1512 1516q21 23 38 29.5t43 1.5q108 -19 161.5 -34.5t78.5 -36t33 -55.5q12 -49 -14 -86t-114 -97q-96 -64 -261.5 -214t-219.5 -221q-40 -52 -81.5 -129.5t-41.5 -99.5q0 -18 27 -6q18 8 30 10t32.5 -6t39.5 -21.5
t57 -48t78.5 -74.5t110.5 -111l259 -262l-6 -207q-3 -109 -6.5 -148.5t-11 -58.5t-27.5 -40l-40 -39l-27 50q-23 41 -210.5 262.5t-341.5 388.5q-189 206 -246 206q-7 0 -38.5 -25.5t-70.5 -60.5q-96 -89 -193.5 -232t-241.5 -404q-10 -19 -56 -21t-95.5 9t-88.5 32t-38 42
q1 9 49.5 81.5t116.5 164.5q180 246 309 443q26 39 27 63q1 23 -54.5 142t-74.5 134q-14 12 -74.5 111t-125.5 216q-46 85 -49 166.5t39 123.5q15 16 32 27t25 11t54.5 -65.5t103.5 -157.5q117 -188 175.5 -275.5t91 -122.5t56.5 -38q18 -2 30 -9.5t12 -17.5q0 -45 52 -23
q27 12 63 42q28 23 83 84t104 123q216 274 288 359t89 85q10 1 27.5 12.5t32.5 27.5z" />
    <glyph glyph-name="y" unicode="y" horiz-adv-x="1555" 
d="M529 344q-8 28 4 26q15 -1 39 -42q18 -31 17 -61t-21 -30q-5 0 -11 12t-10 29q-10 41 -18 66zM796 867q19 12 30 11t11 -13q0 -16 -16 -23.5t-30 1.5q-16 11 5 24zM1121 1343q15 28 34 30q11 2 11 -12q0 -12 -18.5 -30t-30.5 -18q-11 0 2 27q1 1 2 3zM456 1358
q-4 6 -2 10.5t9 4.5t11.5 -4.5t4.5 -10.5q0 -15 -7 -15t-16 15zM133 1389q52 15 132.5 12t99.5 -21q22 -22 86 -139q60 -110 154.5 -255t121.5 -168q11 -10 33.5 -20.5t41.5 -14.5q34 -7 51.5 5t68.5 77l132 162q60 69 170 208q74 93 100 115.5t59 22.5q20 0 44 -7.5
t37 -18.5q21 -17 40.5 -70t20.5 -96q0 -8 -36 -49.5t-88 -93.5q-99 -99 -236 -274.5t-177 -254.5q-34 -66 -25 -100.5t-16 -44.5q-16 -6 -18.5 -41.5t3.5 -172.5q10 -205 19 -236q6 -20 -1.5 -27.5t-37.5 -14.5q-48 -9 -126 -9h-79l-9 273q-9 272 -21 316q-12 40 -33 50
q-15 5 -16 -17q0 -10 -3.5 -17t-8.5 -7q-9 0 -89.5 117t-95.5 152q-9 22 -160 255t-195 294l-46 62l33 18q33 18 70 30z" />
    <glyph glyph-name="z" unicode="z" horiz-adv-x="1516" 
d="M575 936q5 22 19.5 27.5t65.5 4.5l77 -2l-79 -37q-80 -38 -86 -32t3 39zM86 990q0 21 38.5 24t66.5 -15q18 -12 3 -14q-6 -1 -20 -1q-40 0 -64 -9t-24 15zM79 1343q9 0 15.5 -9t6.5 -21t7 -21t16 -9t15.5 5t6.5 12t11.5 9.5t51.5 0t102.5 -8.5t178.5 -20q127 -14 374 -21
t415 -16l168 -9v-131v-132l-103 -83q-103 -83 -253 -180q-123 -80 -270 -198.5t-165 -152.5q-16 -30 -16 -62q0 -13 -6.5 -24.5t-16.5 -14.5q-9 -4 -15.5 -12t-6.5 -15q0 -9 -20.5 -17t-54.5 -12q-75 -11 -97 -19q-13 -5 -19 -21t-2 -30.5t16 -15.5q40 -3 166 2t220 14
q142 14 412 23l270 9l-2 -120q-2 -79 -8.5 -106t-28.5 -52q-32 -34 -70 -35t-127 29q-83 28 -261 33t-524 -10q-92 -4 -146.5 -5.5t-103 0t-72.5 5.5t-45 14t-30.5 22.5t-20.5 33.5q-23 45 -14 121q7 52 20 73.5t60 59.5q30 24 92.5 62t121.5 69q104 53 247 158t258.5 211
t145.5 162q11 21 26.5 37.5t26.5 19.5q26 6 40 41.5t0 60.5q-14 26 -45 33.5t-60 -8.5q-19 -10 -27.5 -10t-11.5 10q-16 47 -138 57.5t-321 -18.5q-150 -22 -271 -22h-121l-10 78q-9 79 -9 127.5t22 48.5z" />
    <glyph glyph-name="braceleft" unicode="{" 
 />
    <glyph glyph-name="bar" unicode="|" horiz-adv-x="130" 
 />
    <glyph glyph-name="braceright" unicode="}" 
 />
    <glyph glyph-name="asciitilde" unicode="~" horiz-adv-x="1157" 
d="M695 869q-18 5 2 7h16q32 0 30 -4q0 -2 -4 -3q-18 -7 -44 0zM340 1546q-15 11 11 15q43 6 368 6h408l-9 -33q-8 -34 -8 -53q0 -7 -10.5 -17t-23.5 -16q-34 -15 -74 -47q-50 -40 -139.5 -29t-253.5 77q-184 73 -212 74t-57 23zM40 1496l-10 71h76q60 0 69 -7q8 -7 8 -41
q0 -49 9 -85q7 -26 -1 -30t-59 2q-71 9 -76 14t-16 76z" />
    <glyph glyph-name="uni00A0" unicode="&#xa0;" horiz-adv-x="500" 
 />
    <glyph glyph-name="exclamdown" unicode="&#xa1;" 
 />
    <glyph glyph-name="cent" unicode="&#xa2;" 
 />
    <glyph glyph-name="sterling" unicode="&#xa3;" 
 />
    <glyph glyph-name="guillemotleft" unicode="&#xab;" 
 />
    <glyph glyph-name="plusminus" unicode="&#xb1;" 
 />
    <glyph glyph-name="acute" unicode="&#xb4;" 
 />
    <glyph glyph-name="guillemotright" unicode="&#xbb;" 
 />
    <glyph glyph-name="questiondown" unicode="&#xbf;" 
 />
    <glyph glyph-name="Aacute" unicode="&#xc1;" horiz-adv-x="1411" 
d="M496 725q0 15 14.5 15t23.5 -15q4 -7 0 -11t-14 -4t-17 4t-7 11zM511 875.5q0 6.5 11 10.5t27 4t27 -4t11 -10.5t-11 -11t-27 -4.5t-27 4.5t-11 11zM45 243q0 19 4.5 32t10.5 13t10.5 -11t4.5 -25.5t-4.5 -28.5t-10.5 -17q-8 -5 -12 11q-3 10 -3 26zM978 289
q-18 12 -1 14q7 1 20 1q16 0 28.5 -4.5t12.5 -11.5q0 -9 -8.5 -12.5t-23 0t-28.5 13.5zM1083 262q0 24 4.5 40.5t10.5 16.5q10 0 13.5 -16.5t-0.5 -38t-13 -36.5q-12 -17 -14 8q-1 9 -1 26zM195 1048q0 16 4.5 27t11 11t11 -11t4.5 -27t-4.5 -26.5t-11 -10.5t-11 10.5
t-4.5 26.5zM316.5 1094q18.5 23 58.5 15q200 -41 651 -44l326 -2l-3 -346q-3 -346 10 -575l13 -230h-90h-44.5t-32 2.5t-24.5 4t-15.5 8t-10 11.5t-3.5 18.5t-1.5 25t1.5 33.5q19 301 13 337q-3 18 -14 27q-21 18 -279 18.5t-331 -17.5q-69 -16 -94.5 -15t-25.5 21
q0 9 -6 16t-15 7q-21 0 -38 -74.5t-26 -209.5l-10 -152h-111h-111l9 108q29 327 84.5 658.5t82.5 331.5q18 0 36.5 23zM1085 956q-18 18 -50.5 24.5t-118.5 9.5q-144 4 -276 -15t-153 -47.5t-21 -159.5q0 -106 11 -132q13 -34 65 -42q33 -5 145 -5q175 0 271 -16
q93 -16 118.5 0.5t14.5 85.5q-4 25 -2 73t9 91q12 71 10 91.5t-23 41.5zM41 1137q27 27 31 -19q3 -29 -1 -94q-9 -132 -26 -140q-15 -7 -15 115q0 127 11 138zM1249 1415q117 31 128 27q7 -2 1 -22q-8 -26 -17 -112l-10 -85l-213 -5q-213 -4 -435 0q-185 4 -207 12
q-14 9 -15 27q0 31 39 42t149 11q69 0 246 32t334 73z" />
    <glyph glyph-name="Adieresis" unicode="&#xc4;" 
 />
    <glyph glyph-name="Aring" unicode="&#xc5;" 
 />
    <glyph glyph-name="AE" unicode="&#xc6;" 
 />
    <glyph glyph-name="Eacute" unicode="&#xc9;" horiz-adv-x="1575" 
d="M493 785q0 19 15 23q19 6 139 4l154 -3l-140 -5q-144 -5 -141 -25q1 -7 28 -14q23 -6 -4 -8q-4 0 -10 -1q-24 -1 -32.5 5.5t-8.5 23.5zM65.5 869.5q10.5 231.5 15 231.5t159.5 -23q129 -18 377 -33.5t335 -9.5q75 4 298.5 13t244.5 18q10 4 15.5 -3.5t5.5 -26.5
q0 -49 -14.5 -67.5t-53.5 -18.5q-50 0 -181 -31q-76 -18 -173.5 -27t-283.5 -15q-260 -8 -318 -22q-56 -13 -68 -49q-6 -19 -6 -68q0 -50 7.5 -63.5t48.5 -29.5q23 -9 88 -18.5t134 -13.5q165 -10 418 -33.5t313 -17.5q40 4 49.5 0t6.5 -25q-3 -18 -21 -24q-25 -7 -179 -10
q-203 -3 -442.5 -20t-298.5 -32q-97 -24 -45 -50q25 -13 82 -24l102 -19l-80 -14q-95 -16 -90 -49q5 -37 132 -74q128 -37 255.5 -52.5t305.5 -15.5q153 0 195 -4t42 -18q0 -20 -22.5 -66.5t-32.5 -46.5q-7 0 -52 33q-33 23 -48.5 24.5t-63.5 -15.5q-61 -22 -351.5 -19
t-565.5 29q-239 23 -260 23q-12 0 -14 41t3 166q9 207 15 272.5t16.5 297zM87 1448q22 14 52 13q15 0 15 -3q0 -4 -30 -17q-49 -22 -54 -11q-3 5 17 18zM1182 1452q329 42 351 7q11 -17 12.5 -78t-7.5 -109l-9 -43l-221 13q-196 12 -403.5 13.5t-250.5 -9.5q-29 -7 -35 -0.5
t-6 48.5q0 43 8.5 51.5t55.5 14.5q64 9 214.5 42t290.5 50z" />
    <glyph glyph-name="Iacute" unicode="&#xcd;" horiz-adv-x="719" 
d="M100 1164q79 5 164 8l85 4l-1 -49q-1 -49 16 -244q57 -655 34 -698q-7 -13 -12 -63t-5 -109q-2 -162 -25 -172q-11 -4 -29 14q-16 17 -27 18t-37 -13q-39 -20 -108 -30l-69 -11l-2 548q-1 391 -11 552t-36 210q-11 22 -1.5 27t64.5 8zM542 1169q-4 10 0 16t13 6t13 -6
t0 -16q-8 -23 -13 -23t-13 23zM495 1452q43 8 67.5 12t47 6t32.5 1t18 -6t11 -12t6 -20l3 -12q4 -19 5.5 -26.5t2.5 -19t1 -15t-3 -9t-5.5 -6t-11.5 -2.5t-15 -1.5t-21 0.5h-10q-74 0 -184 -14.5t-233 -23.5l-123 -9l16 44q9 25 14 30q16 15 129 37z" />
    <glyph glyph-name="Ntilde" unicode="&#xd1;" 
 />
    <glyph glyph-name="Oacute" unicode="&#xd3;" horiz-adv-x="1561" 
d="M313 226q0 59 7 59q4 -1 11 -10q18 -24 19 -50q0 -10 7 -24.5t17 -24.5q16 -16 15 -19.5t-23 -3.5h-42q-5 0 -8 21.5t-3 51.5zM309 446q0 43 4 40q1 -1 2 -6q7 -26 1 -60q-4 -20 -6 2q-1 10 -1 24zM1118 605q0 14 15 14q6 0 10.5 -6.5t4.5 -16.5t-4.5 -14t-10.5 0
q-15 9 -15 23zM1103 740q0 15 15 15t15 -15t-15 -15t-15 15zM332 835q5 43 17.5 50.5t58.5 -4.5q20 -6 26 -16.5t-4.5 -18t-32.5 -4.5q-26 4 -34 -10q-11 -19 -25 -162q0 -6 -1 -13l-14 -150l1 135q1 135 8 193zM1231 1069q135 12 218 15l82 2l-4 -553q-5 -553 -11 -572
q-4 -11 -37 -15t-109 -4q-139 2 -568 -4t-600 0l-172 6l9 349q9 349 32.5 552t23.5 216q0 5 39 6t93 -3q135 -10 507.5 -8.5t496.5 13.5zM1045 961q-251 3 -479 8q-118 4 -181.5 0.5t-85 -12.5t-31.5 -32q-11 -27 -29 -298q-14 -201 -10.5 -364t22.5 -181q5 -5 152 -9.5
t349 -6.5q307 -3 404 0t118 17q37 24 54 124t31 366l16 308l-39 39q-25 24 -49 30q-35 8 -242 11zM403 1221q9 15 16 15t7 -15q0 -6 -4.5 -10.5t-11.5 -4.5t-9 4.5t2 10.5zM1155.5 1438.5q195.5 35.5 210.5 37t34 -40.5t19 -78q0 -16 6.5 -36.5t14.5 -32.5q22 -29 23 -40
q0 -4 -35.5 -6.5t-97 -4t-133.5 -1.5q-111 0 -207 -4t-121 -10q-97 -23 -250 -26q-87 -1 -79 10q18 18 5 65q-17 55 -12 69q8 21 71 30q30 4 141 14q215 19 410.5 54.5z" />
    <glyph glyph-name="Odieresis" unicode="&#xd6;" 
 />
    <glyph glyph-name="Oslash" unicode="&#xd8;" 
 />
    <glyph glyph-name="Uacute" unicode="&#xda;" horiz-adv-x="1455" 
d="M39 -305.5q18 22.5 23 22.5q2 0 2 -3t-1 -8.5t-4 -11.5q-3 -9 -10 -15.5t-13 -6.5q-15 0 3 22.5zM1004 947q-2 22 -0.5 37t1.5 23.5t6 12.5t11.5 5t19.5 1h40l-31 -34q-13 -15 -24 -37.5t-14 -41.5q-5 -35 -8 8q0 10 -1 26zM77 1032q7 26 20 32.5t59 6.5q69 0 86 -12
q22 -15 23 -85q0 -30 -4 -115q-8 -187 2 -352q6 -96 4 -136t-13 -54q-18 -22 -18 -67t18 -68q22 -29 72.5 -51t111.5 -30q75 -10 176 -25q105 -17 264.5 0t221.5 52q40 22 51.5 39.5t17.5 68.5q11 91 11 306.5t-12 323.5q-14 136 -8 142t135 -5l130 -10l-5 -486
q-3 -359 -8 -414q-7 -79 -36 -106q-11 -11 -67 -40q-5 -2 -9 -5q-23 -12 -56 -37t-55 -48l-55 -54l-356 24q-355 25 -482 25q-52 0 -104.5 5.5t-71.5 12.5l-49 18l-2 553q-1 553 8 591zM1135 1410q7 7 87 7h33.5t22 -2t15 -4t6.5 -7.5t3.5 -11t0.5 -17.5q0 -17 6.5 -38.5
t15.5 -33.5q21 -29 22 -37q0 -3 -40.5 -5t-111 -4t-153.5 -2q-197 -2 -308 -11.5t-186 -31.5q-15 -5 -18 3t3 37q6 30 21.5 44t62.5 31q84 32 188.5 51.5t202.5 22.5q120 2 127 9zM171 1534q-5 6 -7 9t0.5 5.5t8 3t17 0.5t17 -0.5t8 -3t0.5 -5.5t-7 -9q-11 -10 -18.5 -10
t-18.5 10z" />
    <glyph glyph-name="Udieresis" unicode="&#xdc;" 
 />
    <glyph glyph-name="germandbls" unicode="&#xdf;" 
 />
    <glyph glyph-name="aacute" unicode="&#xe1;" horiz-adv-x="1411" 
d="M496 725q0 15 14.5 15t23.5 -15q4 -7 0 -11t-14 -4t-17 4t-7 11zM522 864q-11 5 -11 11.5t11 10.5t27 4t27 -4t11 -10.5t-11 -11t-27 -4.5t-27 4zM45 243q0 19 4.5 32t10.5 13t10.5 -11t4.5 -25.5t-4.5 -28.5t-10.5 -17q-8 -5 -12 11q-3 10 -3 26zM978 289q-18 12 -1 14
q7 1 20 1q16 0 28.5 -4.5t12.5 -11.5q0 -9 -8.5 -12.5t-23 0t-28.5 13.5zM1083 262q0 24 4.5 40.5t10.5 16.5q10 0 13.5 -16.5t-0.5 -38t-13 -36.5q-12 -17 -14 8q-1 9 -1 26zM199 1021q-4 11 -4 27t4.5 27t11 11t11 -11t4.5 -27t-4.5 -26.5t-11 -10.5t-11.5 10zM375 1109
q200 -41 651 -44l326 -2l-3 -346q-3 -346 10 -575l13 -230h-90h-44.5t-32 2.5t-24.5 4t-15.5 8t-10 11.5t-3.5 18.5t-1.5 25t1.5 33.5q19 301 13 337q-3 18 -14 27q-21 18 -279 18.5t-331 -17.5q-69 -16 -94.5 -15t-25.5 21q0 9 -6 16t-15 7q-21 0 -38 -74.5t-26 -209.5
l-10 -152h-111h-111l9 108q29 327 84.5 658.5t82.5 331.5q18 0 36.5 23t58.5 15zM1085 956q-18 18 -50.5 24.5t-118.5 9.5q-144 4 -276 -15t-153 -47.5t-21 -159.5q0 -106 11 -132q13 -34 65 -42q33 -5 145 -5q175 0 271 -16q93 -16 118.5 0.5t14.5 85.5q-4 25 -2 73t9 91
q12 71 10 91.5t-23 41.5zM41 1137q27 27 31 -19q3 -29 -1 -94q-9 -132 -26 -140q-15 -7 -15 115q0 127 11 138zM1249 1415q117 31 128 27q7 -2 1 -22q-8 -26 -17 -112l-10 -85l-213 -5q-213 -4 -435 0q-185 4 -207 12q-14 9 -15 27q0 31 39 42t149 11q69 0 246 32t334 73z
" />
    <glyph glyph-name="adieresis" unicode="&#xe4;" 
 />
    <glyph glyph-name="aring" unicode="&#xe5;" 
 />
    <glyph glyph-name="ae" unicode="&#xe6;" 
 />
    <glyph glyph-name="eacute" unicode="&#xe9;" horiz-adv-x="1575" 
d="M493 785q0 19 15 23q19 6 139 4l154 -3l-140 -5q-144 -5 -141 -25q1 -7 28 -14q23 -6 -4 -8q-4 0 -10 -1q-24 -1 -32.5 5.5t-8.5 23.5zM240 1078q129 -18 377 -33.5t335 -9.5q75 4 298.5 13t244.5 18q10 4 15.5 -3.5t5.5 -26.5q0 -49 -14.5 -67.5t-53.5 -18.5
q-50 0 -181 -31q-76 -18 -173.5 -27t-283.5 -15q-260 -8 -318 -22q-56 -13 -68 -49q-6 -19 -6 -68q0 -50 7.5 -63.5t48.5 -29.5q23 -9 88 -18.5t134 -13.5q165 -10 418 -33.5t313 -17.5q40 4 49.5 0t6.5 -25q-3 -18 -21 -24q-25 -7 -179 -10q-203 -3 -442.5 -20t-298.5 -32
q-97 -24 -45 -50q25 -13 82 -24l102 -19l-80 -14q-95 -16 -90 -49q5 -37 132 -74q128 -37 255.5 -52.5t305.5 -15.5q153 0 195 -4t42 -18q0 -20 -22.5 -66.5t-32.5 -46.5q-7 0 -52 33q-33 23 -48.5 24.5t-63.5 -15.5q-61 -22 -351.5 -19t-565.5 29q-239 23 -260 23
q-12 0 -14 41t3 166q9 207 15 272.5t16.5 297t15 231.5t159.5 -23zM87 1448q22 14 52 13q15 0 15 -3q0 -4 -30 -17q-49 -22 -54 -11q-3 5 17 18zM1182 1452q329 42 351 7q11 -17 12.5 -78t-7.5 -109l-9 -43l-221 13q-196 12 -403.5 13.5t-250.5 -9.5q-29 -7 -35 -0.5
t-6 48.5q0 43 8.5 51.5t55.5 14.5q64 9 214.5 42t290.5 50z" />
    <glyph glyph-name="iacute" unicode="&#xed;" horiz-adv-x="719" 
d="M100 1164q79 5 164 8l85 4l-1 -49q-1 -49 16 -244q57 -655 34 -698q-7 -13 -12 -63t-5 -109q-2 -162 -25 -172q-11 -4 -29 14q-16 17 -27 18t-37 -13q-39 -20 -108 -30l-69 -11l-2 548q-1 391 -11 552t-36 210q-11 22 -1.5 27t64.5 8zM542 1169q-4 10 0 16t13 6t13 -6
t0 -16q-8 -23 -13 -23t-13 23zM495 1452q43 8 67.5 12t47 6t32.5 1t18 -6t11 -12t6 -20l3 -12q4 -19 5.5 -26.5t2.5 -19t1 -15t-3 -9t-5.5 -6t-11.5 -2.5t-15 -1.5t-21 0.5h-10q-74 0 -184 -14.5t-233 -23.5l-123 -9l16 44q9 25 14 30q16 15 129 37z" />
    <glyph glyph-name="ntilde" unicode="&#xf1;" 
 />
    <glyph glyph-name="oacute" unicode="&#xf3;" horiz-adv-x="1561" 
d="M313 226q0 59 7 59q4 -1 11 -10q18 -24 19 -50q0 -10 7 -24.5t17 -24.5q16 -16 15 -19.5t-23 -3.5h-42q-5 0 -8 21.5t-3 51.5zM309 446q0 43 4 40q1 -1 2 -6q7 -26 1 -60q-4 -20 -6 2q-1 10 -1 24zM1133 619q6 0 10.5 -6.5t4.5 -16.5t-4.5 -14t-10.5 0q-15 9 -15 23
t15 14zM1118 725q-15 0 -15 15t15 15t15 -15t-15 -15zM332 835q5 43 17.5 50.5t58.5 -4.5q20 -6 26 -16.5t-4.5 -18t-32.5 -4.5q-26 4 -34 -10q-11 -19 -25 -162q0 -6 -1 -13l-14 -150l1 135q1 135 8 193zM1231 1069q135 12 218 15l82 2l-4 -553q-5 -553 -11 -572
q-4 -11 -37 -15t-109 -4q-139 2 -568 -4t-600 0l-172 6l9 349q9 349 32.5 552t23.5 216q0 5 39 6t93 -3q135 -10 507.5 -8.5t496.5 13.5zM1045 961q-251 3 -479 8q-118 4 -181.5 0.5t-85 -12.5t-31.5 -32q-11 -27 -29 -298q-14 -201 -10.5 -364t22.5 -181q5 -5 152 -9.5
t349 -6.5q307 -3 404 0t118 17q37 24 54 124t31 366l16 308l-39 39q-25 24 -49 30q-35 8 -242 11zM403 1221q9 15 16 15t7 -15q0 -6 -4.5 -10.5t-11.5 -4.5t-9 4.5t2 10.5zM1419 1357q0 -16 6.5 -36.5t14.5 -32.5q22 -29 23 -40q0 -4 -35.5 -6.5t-97 -4t-133.5 -1.5
q-111 0 -207 -4t-121 -10q-97 -23 -250 -26q-87 -1 -79 10q18 18 5 65q-17 55 -12 69q8 21 71 30q30 4 141 14q215 19 410.5 54.5t210.5 37t34 -40.5t19 -78z" />
    <glyph glyph-name="odieresis" unicode="&#xf6;" 
 />
    <glyph glyph-name="oslash" unicode="&#xf8;" 
 />
    <glyph glyph-name="uacute" unicode="&#xfa;" horiz-adv-x="1455" 
d="M62 -283q2 0 2 -3t-1 -8.5t-4 -11.5q-3 -9 -10 -15.5t-13 -6.5q-15 0 3 22.5t23 22.5zM1004 947q-2 22 -0.5 37t1.5 23.5t6 12.5t11.5 5t19.5 1h40l-31 -34q-13 -15 -24 -37.5t-14 -41.5q-5 -35 -8 8q0 10 -1 26zM77 1032q7 26 20 32.5t59 6.5q69 0 86 -12q22 -15 23 -85
q0 -30 -4 -115q-8 -187 2 -352q6 -96 4 -136t-13 -54q-18 -22 -18 -67t18 -68q22 -29 72.5 -51t111.5 -30q75 -10 176 -25q105 -17 264.5 0t221.5 52q40 22 51.5 39.5t17.5 68.5q11 91 11 306.5t-12 323.5q-14 136 -8 142t135 -5l130 -10l-5 -486q-3 -359 -8 -414
q-7 -79 -36 -106q-11 -11 -67 -40q-5 -2 -9 -5q-23 -12 -56 -37t-55 -48l-55 -54l-356 24q-355 25 -482 25q-52 0 -104.5 5.5t-71.5 12.5l-49 18l-2 553q-1 553 8 591zM1222 1417h33.5t22 -2t15 -4t6.5 -7.5t3.5 -11t0.5 -17.5q0 -17 6.5 -38.5t15.5 -33.5q21 -29 22 -37
q0 -3 -40.5 -5t-111 -4t-153.5 -2q-197 -2 -308 -11.5t-186 -31.5q-15 -5 -18 3t3 37q6 30 21.5 44t62.5 31q84 32 188.5 51.5t202.5 22.5q120 2 127 9t87 7zM171 1534q-5 6 -7 9t0.5 5.5t8 3t17 0.5t17 -0.5t8 -3t0.5 -5.5t-7 -9q-11 -10 -18.5 -10t-18.5 10z" />
    <glyph glyph-name="udieresis" unicode="&#xfc;" 
 />
    <glyph glyph-name="quoteright" unicode="&#x2019;" horiz-adv-x="130" 
 />
    <glyph glyph-name="quotedblleft" unicode="&#x201c;" horiz-adv-x="130" 
 />
    <glyph glyph-name="Euro" unicode="&#x20ac;" 
 />
    <glyph glyph-name="NULL" horiz-adv-x="0" 
 />
  </font>
</defs>
</svg>
